<?xml version="1.0" encoding="utf-8" ?>
<svg xmlns="http://www.w3.org/2000/svg" xmlns:ev="http://www.w3.org/2001/xml-events" xmlns:xlink="http://www.w3.org/1999/xlink" baseProfile="full" height="64px" version="1.1" viewBox="0 0 30 64" width="30px">
  <defs/>
  <g id="x0a090f_r10_g9_b15_a1.0">
    <path d="M 4,37 4,27 5,27 5,23 6,23 6,21 7,21 7,20 8,20 8,19 9,19 9,18 10,18 10,17 11,17 11,16 12,16 12,15 14,15 14,14 16,14 16,13 21,13 21,14 23,14 23,15 24,15 24,17 25,17 25,22 24,22 24,26 23,26 23,29 22,29 22,31 21,31 21,32 20,32 20,34 19,34 19,35 18,35 18,36 17,36 17,37 16,37 16,38 17,38 17,37 19,37 19,38 20,38 20,39 21,39 21,40 22,40 22,42 23,42 23,41 26,41 26,43 24,43 24,44 22,44 22,45 21,45 21,46 20,46 20,47 19,47 19,48 17,48 17,49 11,49 10,49 10,48 9,48 9,47 8,47 8,46 7,46 6,46 6,47 5,47 4,47 4,46 4,45 5,45 5,44 6,44 6,42 5,42 5,40 5,37 z M 16,34 17,34 17,33 18,33 18,31 19,31 19,30 20,30 20,29 20,28 21,28 21,27 21,25 22,25 22,23 22,22 22,21 23,21 23,20 23,18 22,18 22,16 20,16 20,15 17,15 17,16 15,16 15,17 13,17 13,18 12,18 12,19 11,19 11,20 10,20 10,21 9,21 9,22 8,22 8,24 7,24 7,27 7,28 6,28 6,29 6,31 6,36 7,36 7,40 7,41 8,41 8,42 9,42 9,41 10,41 10,40 11,40 11,39 12,39 12,38 13,38 13,37 14,37 14,36 15,36 15,35 16,35 z M 18,46 18,45 19,45 19,44 16,44 16,43 15,43 15,42 14,42 14,40 13,40 13,41 12,41 12,42 11,42 11,43 10,43 10,44 9,44 9,45 10,45 10,46 11,46 11,47 12,47 16,47 16,46 z M 15,40 15,39 14,39 14,40 z M 20,42 20,41 19,41 19,40 17,40 17,42 z M 16,39 16,38 15,38 15,39 z" fill="#0a090f" fill-opacity="1.0" id="x0a090f_r10_g9_b15_a1.0_shape1"/>
  </g>
</svg>
