<?xml version="1.0" encoding="utf-8" ?>
<svg xmlns="http://www.w3.org/2000/svg" xmlns:ev="http://www.w3.org/2001/xml-events" xmlns:xlink="http://www.w3.org/1999/xlink" baseProfile="full" height="64px" version="1.1" viewBox="0 0 30 64" width="30px">
  <defs/>
  <g id="x0a090f_r10_g9_b15_a1.0">
    <path d="M 13,53 12,53 12,54 11,54 11,55 7,55 7,54 6,54 6,51 5,51 5,48 6,48 6,39 7,39 7,27 6,27 6,23 5,23 5,24 4,24 4,38 4,39 3,39 3,40 3,45 2,45 2,46 1,46 1,47 0,47 0,44 1,44 1,38 2,38 2,23 3,23 3,22 4,22 4,21 5,21 5,20 7,20 7,21 8,21 8,26 9,26 9,40 8,40 8,48 8,49 7,49 7,50 8,50 8,53 10,53 10,52 11,52 11,51 12,51 12,50 13,50 13,49 15,49 15,48 16,48 16,46 17,46 17,45 18,45 18,43 19,43 19,41 20,41 20,38 19,38 19,36 18,36 18,34 17,34 17,30 16,30 16,26 15,26 15,23 15,16 16,16 16,15 17,15 17,14 19,14 19,16 20,16 20,17 21,17 21,18 22,18 22,20 23,20 23,25 23,26 24,26 24,27 24,31 23,31 23,37 23,40 24,40 24,41 25,41 25,42 28,42 28,41 30,41 30,43 29,43 29,44 28,44 24,44 24,43 23,43 23,42 21,42 21,44 20,44 20,46 19,46 19,47 18,47 18,49 17,49 17,50 16,50 16,51 14,51 14,52 13,52 z M 19,33 20,33 20,35 21,35 21,30 22,30 22,27 21,27 21,26 21,21 20,21 20,19 19,19 19,18 18,18 18,17 17,17 17,22 17,25 18,25 18,29 19,29 z" fill="#0a090f" fill-opacity="1.0" id="x0a090f_r10_g9_b15_a1.0_shape1"/>
  </g>
</svg>
