<?xml version="1.0" encoding="utf-8" ?>
<svg xmlns="http://www.w3.org/2000/svg" xmlns:ev="http://www.w3.org/2001/xml-events" xmlns:xlink="http://www.w3.org/1999/xlink" baseProfile="full" height="64px" version="1.1" viewBox="0 0 30 64" width="30px">
  <defs/>
  <g id="x0a090f_r10_g9_b15_a1.0">
    <path d="M 17,47 16,47 16,48 13,48 13,47 12,47 12,46 11,46 11,45 10,45 10,47 9,47 9,48 7,48 7,46 8,46 8,45 9,45 9,43 10,43 10,40 11,40 11,35 12,35 12,34 14,34 14,37 14,39 13,39 13,42 12,42 12,43 13,43 13,45 14,45 14,46 15,46 15,45 16,45 16,44 17,44 17,42 18,42 18,34 20,34 20,36 21,36 21,39 20,39 20,40 21,40 21,43 22,43 22,44 23,44 23,47 22,47 22,46 21,46 21,45 20,45 20,44 19,44 19,45 18,45 18,46 17,46 z" fill="#0a090f" fill-opacity="1.0" id="x0a090f_r10_g9_b15_a1.0_shape1"/>
  </g>
</svg>
