<?xml version="1.0" encoding="utf-8" ?>
<svg xmlns="http://www.w3.org/2000/svg" xmlns:ev="http://www.w3.org/2001/xml-events" xmlns:xlink="http://www.w3.org/1999/xlink" baseProfile="full" height="64px" version="1.1" viewBox="0 0 30 64" width="30px">
  <defs/>
  <g id="x0a090f_r10_g9_b15_a1.0">
    <path d="M 19,30 19,31 18,31 18,32 17,32 17,33 17,36 18,36 18,38 18,39 19,39 19,40 19,41 20,41 20,42 21,42 21,44 22,44 22,45 23,45 23,46 28,46 29,46 29,48 28,48 22,48 22,47 21,47 21,46 20,46 20,45 19,45 19,43 18,43 18,42 17,42 17,40 16,40 16,37 15,37 15,34 14,34 14,35 10,35 10,39 9,39 9,43 8,43 8,44 7,44 7,46 6,46 6,47 5,47 5,48 4,48 4,49 1,49 1,48 0,48 0,46 2,46 2,47 3,47 3,46 4,46 4,45 5,45 5,43 6,43 6,42 7,42 7,38 8,38 8,35 7,35 7,34 6,34 6,33 5,33 5,31 4,31 4,26 5,26 5,25 6,25 6,24 8,24 8,25 9,25 9,26 10,26 10,31 11,31 11,33 13,33 13,32 15,32 15,29 15,20 15,18 16,18 16,16 16,14 17,14 17,13 18,13 18,12 19,12 19,11 21,11 21,12 22,12 22,13 23,13 23,14 24,14 24,19 24,21 23,21 23,24 23,25 22,25 22,26 22,27 21,27 21,28 21,29 20,29 20,30 z M 8,27 6,27 6,30 7,30 7,32 8,32 z M 22,15 21,15 21,14 19,14 19,15 18,15 18,19 17,19 17,22 17,23 17,29 18,29 18,28 19,28 19,26 20,26 20,24 21,24 21,20 22,20 22,16 z" fill="#0a090f" fill-opacity="1.0" id="x0a090f_r10_g9_b15_a1.0_shape1"/>
  </g>
</svg>
