<?xml version="1.0" encoding="utf-8" ?>
<svg xmlns="http://www.w3.org/2000/svg" xmlns:ev="http://www.w3.org/2001/xml-events" xmlns:xlink="http://www.w3.org/1999/xlink" baseProfile="full" height="64px" version="1.1" viewBox="0 0 30 64" width="30px">
  <defs/>
  <g id="x0a090f_r10_g9_b15_a1.0">
    <path d="M 21,44 20,44 20,46 21,46 21,48 19,48 19,61 17,61 17,49 11,49 11,48 10,48 10,47 9,47 9,39 10,39 10,38 11,38 11,37 12,37 12,36 13,36 13,35 17,35 17,36 18,36 18,37 21,37 z M 18,39 17,39 17,38 16,38 16,37 14,37 14,38 13,38 13,39 12,39 12,40 11,40 11,41 11,46 12,46 12,47 16,47 16,46 17,46 17,45 18,45 z" fill="#0a090f" fill-opacity="1.0" id="x0a090f_r10_g9_b15_a1.0_shape1"/>
  </g>
</svg>
