<?xml version="1.0" encoding="utf-8" ?>
<svg xmlns="http://www.w3.org/2000/svg" xmlns:ev="http://www.w3.org/2001/xml-events" xmlns:xlink="http://www.w3.org/1999/xlink" baseProfile="full" height="64px" version="1.1" viewBox="0 0 30 64" width="30px">
  <defs/>
  <g id="x0a090f_r10_g9_b15_a1.0">
    <path d="M 19,46 21,46 21,48 18,48 18,47 17,47 17,46 16,46 16,44 15,44 15,43 12,43 10,43 10,41 11,41 13,41 13,40 14,40 14,37 16,37 16,38 17,38 17,40 16,40 16,41 17,41 17,43 18,43 18,45 19,45 z" fill="#0a090f" fill-opacity="1.0" id="x0a090f_r10_g9_b15_a1.0_shape1"/>
    <path d="M 15,27 15,28 16,28 16,29 17,29 17,32 17,33 14,33 14,32 13,32 13,30 12,30 12,29 13,29 13,27 z" fill="#0a090f" fill-opacity="1.0" id="x0a090f_r10_g9_b15_a1.0_shape2"/>
  </g>
</svg>
