<?xml version="1.0" encoding="utf-8" ?>
<svg xmlns="http://www.w3.org/2000/svg" xmlns:ev="http://www.w3.org/2001/xml-events" xmlns:xlink="http://www.w3.org/1999/xlink" baseProfile="full" height="64px" version="1.1" viewBox="0 0 30 64" width="30px">
  <defs/>
  <g id="x0a090f_r10_g9_b15_a1.0">
    <path d="M 26,51 26,50 27,50 27,48 28,48 28,46 30,46 30,48 29,48 29,51 28,51 28,52 27,52 27,53 26,53 26,54 25,54 25,55 22,55 22,56 21,56 21,57 20,57 20,58 19,58 19,59 15,59 15,58 14,58 14,57 13,57 13,49 14,49 14,48 15,48 15,47 16,47 16,46 17,46 17,45 18,45 18,44 19,44 19,43 20,43 20,42 21,42 21,41 22,41 22,40 23,40 23,38 24,38 24,37 25,37 25,34 26,34 26,32 27,32 27,29 28,29 28,17 27,17 27,16 26,16 26,15 24,15 24,16 23,16 23,17 22,17 22,18 21,18 21,26 20,26 20,29 19,29 19,31 18,31 18,33 17,33 17,35 16,35 16,36 15,36 15,37 13,37 13,36 11,36 11,35 12,35 12,30 13,30 13,28 14,28 14,26 15,26 15,24 16,24 16,21 17,21 17,20 18,20 18,18 19,18 19,17 18,17 18,16 16,16 16,18 14,18 14,19 13,19 13,20 11,20 11,21 10,21 10,23 11,23 11,30 10,30 10,34 9,34 9,36 8,36 8,37 7,37 7,38 5,38 5,37 4,37 4,34 4,31 5,31 5,28 5,27 6,27 6,26 6,25 7,25 7,24 7,22 8,22 8,20 8,19 7,19 7,18 5,18 5,20 4,20 4,24 3,24 3,33 3,40 4,40 4,46 6,46 6,47 7,47 7,48 8,48 8,50 9,50 9,53 8,53 8,54 5,54 5,53 4,53 4,52 3,52 3,51 2,51 2,48 0,48 0,46 2,46 2,44 1,44 1,42 1,23 2,23 2,19 3,19 3,17 4,17 4,16 5,16 5,15 7,15 7,16 9,16 9,18 11,18 11,17 12,17 12,16 13,16 13,15 14,15 14,14 19,14 19,15 20,15 20,16 21,16 21,15 22,15 22,14 23,14 23,13 27,13 27,14 28,14 28,15 29,15 29,16 30,16 30,30 29,30 29,33 28,33 28,35 27,35 27,38 26,38 26,39 25,39 25,41 24,41 24,42 23,42 23,43 22,43 22,44 21,44 21,45 24,45 24,46 25,46 25,51 z M 23,52 23,47 22,47 22,48 21,48 21,49 21,50 22,50 22,51 22,52 z M 8,29 9,29 9,26 8,26 8,28 7,28 7,32 6,32 6,35 7,35 7,33 8,33 z M 14,31 14,34 15,34 15,32 16,32 16,30 17,30 17,28 18,28 18,26 18,25 19,25 19,24 19,22 18,22 18,24 18,25 17,25 17,26 17,27 16,27 16,28 16,29 15,29 15,30 15,31 z M 19,56 19,55 20,55 20,54 21,54 21,53 20,53 20,51 19,51 19,49 19,47 20,47 20,46 19,46 19,47 18,47 18,48 17,48 17,49 16,49 16,50 15,50 15,56 16,56 16,57 18,57 18,56 z M 4,48 4,50 5,50 5,51 6,51 6,52 7,52 7,51 6,51 6,49 5,49 5,48 z M 21,46 21,45 20,45 20,46 z" fill="#0a090f" fill-opacity="1.0" id="x0a090f_r10_g9_b15_a1.0_shape1"/>
  </g>
</svg>
