<?xml version="1.0" encoding="utf-8" ?>
<svg xmlns="http://www.w3.org/2000/svg" xmlns:ev="http://www.w3.org/2001/xml-events" xmlns:xlink="http://www.w3.org/1999/xlink" baseProfile="full" height="64px" version="1.1" viewBox="0 0 30 64" width="30px">
  <defs/>
  <g id="x0a090f_r10_g9_b15_a1.0">
    <path d="M 9,43 9,38 8,38 8,39 7,39 7,41 6,41 6,42 5,42 5,44 4,44 4,46 3,46 3,47 2,47 2,48 0,48 0,46 1,46 1,45 2,45 2,43 3,43 3,41 4,41 4,40 5,40 5,38 6,38 6,37 7,37 7,36 8,36 8,35 9,35 9,34 11,34 11,35 12,35 12,39 11,39 11,44 10,44 10,46 11,46 11,45 12,45 12,44 13,44 13,43 14,43 14,39 14,37 15,37 15,35 15,34 17,34 17,35 17,36 18,36 18,37 18,39 17,39 17,41 17,43 16,43 16,44 17,44 17,46 19,46 19,45 20,45 20,43 21,43 21,42 20,42 20,41 19,41 19,40 19,37 20,37 20,35 21,35 21,34 23,34 23,35 24,35 24,38 24,40 23,40 23,41 28,41 28,42 29,42 29,44 28,44 28,45 27,45 27,46 30,46 30,48 28,48 25,48 25,47 24,47 24,45 25,45 25,44 26,44 26,43 25,43 25,44 22,44 22,46 21,46 21,47 20,47 20,48 16,48 16,47 15,47 15,45 14,45 14,46 13,46 13,47 12,47 12,48 9,48 9,47 8,47 8,43 z M 10,38 10,37 9,37 9,38 z M 22,38 21,38 21,39 22,39 z" fill="#0a090f" fill-opacity="1.0" id="x0a090f_r10_g9_b15_a1.0_shape1"/>
  </g>
</svg>
