<?xml version="1.0" encoding="utf-8" ?>
<svg xmlns="http://www.w3.org/2000/svg" xmlns:ev="http://www.w3.org/2001/xml-events" xmlns:xlink="http://www.w3.org/1999/xlink" baseProfile="full" height="64px" version="1.1" viewBox="0 0 30 64" width="30px">
  <defs/>
  <g id="x0a090f_r10_g9_b15_a1.0">
    <path d="M 17,47 15,47 15,46 14,46 14,45 13,45 13,46 12,46 12,48 10,48 10,46 11,46 11,44 12,44 12,42 13,42 13,38 14,38 14,34 11,34 11,32 13,32 13,21 15,21 15,31 17,31 17,30 19,30 20,30 20,32 19,32 18,32 18,33 17,33 16,33 16,35 16,39 15,39 15,42 15,44 16,44 16,45 18,45 18,46 20,46 20,48 17,48 z" fill="#0a090f" fill-opacity="1.0" id="x0a090f_r10_g9_b15_a1.0_shape1"/>
  </g>
</svg>
