<?xml version="1.0" encoding="utf-8" ?>
<svg xmlns="http://www.w3.org/2000/svg" xmlns:ev="http://www.w3.org/2001/xml-events" xmlns:xlink="http://www.w3.org/1999/xlink" baseProfile="full" height="64px" version="1.1" viewBox="0 0 30 64" width="30px">
  <defs/>
  <g id="x0a090f_r10_g9_b15_a1.0">
    <path d="M 17,47 16,47 16,48 14,48 14,49 6,49 6,48 5,48 5,47 3,47 3,48 1,48 1,46 2,46 2,45 3,45 3,44 4,44 4,34 4,32 5,32 5,29 6,29 6,27 7,27 7,25 8,25 8,24 9,24 9,23 10,23 10,22 11,22 11,21 12,21 12,20 13,20 13,19 15,19 15,18 18,18 18,17 20,17 20,18 22,18 22,19 23,19 23,20 24,20 24,21 25,21 25,23 26,23 26,22 28,22 28,23 29,23 29,24 29,27 28,27 28,31 27,31 27,33 26,33 26,35 25,35 25,37 24,37 24,39 23,39 23,40 22,40 22,41 22,42 23,42 23,43 23,44 22,44 22,45 22,46 21,46 21,47 21,48 24,48 24,47 25,47 25,46 26,46 26,45 29,45 29,46 30,46 30,48 28,48 28,47 27,47 27,48 26,48 26,49 25,49 25,50 23,50 23,51 21,51 21,50 20,50 20,49 19,49 19,50 18,50 18,51 17,51 17,54 16,54 16,56 15,56 15,58 14,58 14,60 13,60 13,62 12,62 12,63 10,63 10,61 11,61 11,58 12,58 12,55 13,55 13,53 14,53 14,52 15,52 15,50 16,50 16,48 17,48 z M 7,33 6,33 6,43 7,43 7,45 8,45 8,46 9,46 9,47 11,47 11,46 13,46 13,45 14,45 14,44 15,44 15,43 17,43 17,42 18,42 18,41 19,41 19,39 20,39 20,38 21,38 21,36 22,36 22,33 23,33 23,31 24,31 24,24 23,24 23,22 22,22 22,21 21,21 21,20 16,20 16,21 14,21 14,22 13,22 13,23 12,23 12,24 11,24 11,25 10,25 10,26 9,26 9,28 8,28 8,30 7,30 z" fill="#0a090f" fill-opacity="1.0" id="x0a090f_r10_g9_b15_a1.0_shape1"/>
  </g>
</svg>
