<?xml version="1.0" encoding="utf-8" ?>
<svg xmlns="http://www.w3.org/2000/svg" xmlns:ev="http://www.w3.org/2001/xml-events" xmlns:xlink="http://www.w3.org/1999/xlink" baseProfile="full" height="64px" version="1.1" viewBox="0 0 30 64" width="30px">
  <defs/>
  <g id="x0a090f_r10_g9_b15_a1.0">
    <path d="M 8,54 9,54 9,52 10,52 10,50 11,50 11,49 9,49 9,48 8,48 8,47 7,47 7,45 6,45 6,44 5,44 5,45 4,45 4,46 3,46 3,47 2,47 2,48 0,48 0,47 0,46 1,46 1,45 2,45 2,44 3,44 3,43 4,43 4,42 5,42 5,41 5,40 5,38 4,38 4,36 4,28 5,28 5,27 6,27 6,26 8,26 8,27 9,27 9,28 10,28 10,34 10,36 9,36 9,40 8,40 8,44 9,44 9,46 10,46 10,47 13,47 13,46 15,46 15,45 17,45 17,44 18,44 18,43 19,43 19,42 20,42 20,41 21,41 21,39 20,39 20,36 19,36 19,34 18,34 18,33 17,33 17,31 16,31 16,29 15,29 15,27 14,27 14,25 14,22 15,22 15,21 16,21 16,20 17,20 17,19 20,19 20,20 21,20 21,21 22,21 22,22 23,22 23,23 24,23 24,25 25,25 25,39 24,39 24,44 28,44 28,46 30,46 30,48 27,48 27,47 25,47 25,52 24,52 24,55 23,55 23,57 22,57 22,58 21,58 21,59 20,59 20,60 18,60 18,61 16,61 16,62 14,62 14,63 10,63 10,62 9,62 9,61 8,61 z M 19,30 19,32 20,32 20,33 21,33 21,35 22,35 22,38 23,38 23,36 23,26 22,26 22,24 21,24 21,23 20,23 20,22 19,22 19,21 18,21 18,22 17,22 17,23 16,23 16,26 17,26 17,28 18,28 18,30 z M 8,29 6,29 6,37 7,37 7,35 8,35 z M 11,53 11,55 10,55 10,60 11,60 11,61 13,61 13,60 15,60 15,59 17,59 17,58 19,58 19,57 20,57 20,56 21,56 21,54 22,54 22,51 23,51 23,48 23,46 21,46 21,47 17,47 17,48 15,48 15,49 14,49 14,50 13,50 13,51 12,51 12,53 z M 22,44 22,43 21,43 21,44 z" fill="#0a090f" fill-opacity="1.0" id="x0a090f_r10_g9_b15_a1.0_shape1"/>
  </g>
</svg>
