<?xml version="1.0" encoding="utf-8" ?>
<svg xmlns="http://www.w3.org/2000/svg" xmlns:ev="http://www.w3.org/2001/xml-events" xmlns:xlink="http://www.w3.org/1999/xlink" baseProfile="full" height="64px" version="1.1" viewBox="0 0 30 64" width="30px">
  <defs/>
  <g id="x0a090f_r10_g9_b15_a1.0">
    <path d="M 12,36 13,36 13,35 14,35 14,34 19,34 19,35 20,35 20,36 21,36 21,39 20,39 20,40 19,40 19,41 18,41 18,42 17,42 17,43 15,43 15,44 14,44 14,45 15,45 15,46 17,46 17,47 20,47 20,46 23,46 23,48 21,48 21,49 17,49 16,49 16,48 15,48 14,48 14,47 13,47 13,46 12,46 12,45 11,45 11,43 10,43 9,43 9,41 11,41 11,37 12,37 z M 17,40 17,39 18,39 18,38 19,38 19,37 18,37 18,36 16,36 15,36 15,37 14,37 14,38 13,38 13,39 13,42 14,42 14,41 15,41 16,41 16,40 z" fill="#0a090f" fill-opacity="1.0" id="x0a090f_r10_g9_b15_a1.0_shape1"/>
  </g>
</svg>
