<?xml version="1.0" encoding="utf-8" ?>
<svg xmlns="http://www.w3.org/2000/svg" xmlns:ev="http://www.w3.org/2001/xml-events" xmlns:xlink="http://www.w3.org/1999/xlink" baseProfile="full" height="64px" version="1.1" viewBox="0 0 30 64" width="30px">
  <defs/>
  <g id="x0a090f_r10_g9_b15_a1.0">
    <path d="M 7,32 6,32 6,26 5,26 5,34 4,34 4,42 3,42 3,47 2,47 2,48 0,48 0,46 1,46 1,44 1,41 2,41 2,36 2,33 3,33 3,27 3,23 4,23 4,22 6,22 6,23 7,23 7,25 8,25 8,31 9,31 9,29 10,29 10,27 12,27 12,28 13,28 13,29 14,29 14,31 15,31 15,38 15,41 15,43 16,43 16,46 17,46 17,47 18,47 18,49 19,49 19,50 20,50 20,49 21,49 21,47 22,47 22,41 22,38 21,38 21,36 20,36 20,35 19,35 19,34 18,34 18,32 17,32 17,29 16,29 16,27 15,27 15,24 14,24 14,22 13,22 13,15 14,15 14,14 16,14 16,15 17,15 17,16 18,16 18,17 19,17 19,18 20,18 20,20 21,20 21,23 22,23 22,26 23,26 23,30 24,30 24,39 25,39 25,40 26,40 26,41 27,41 27,42 28,42 28,41 30,41 30,43 29,43 29,44 26,44 26,43 25,43 25,42 24,42 24,48 24,49 23,49 23,50 22,50 22,51 21,51 21,52 18,52 18,51 17,51 17,50 16,50 16,48 15,48 15,47 14,47 14,48 13,48 13,50 12,50 12,51 11,51 11,53 10,53 10,54 8,54 8,53 7,53 z M 12,36 13,36 13,35 13,32 12,32 12,30 11,30 11,33 12,33 12,35 z M 19,31 20,31 20,33 21,33 21,34 22,34 22,31 21,31 21,27 20,27 20,24 19,24 19,21 18,21 18,19 17,19 17,18 16,18 16,17 15,17 15,21 16,21 16,23 17,23 17,25 17,26 18,26 18,27 18,28 19,28 19,29 z M 9,50 10,50 10,49 11,49 11,47 12,47 12,40 11,40 11,37 10,37 10,34 9,34 9,38 z" fill="#0a090f" fill-opacity="1.0" id="x0a090f_r10_g9_b15_a1.0_shape1"/>
  </g>
</svg>
