<?xml version="1.0" encoding="utf-8" ?>
<svg xmlns="http://www.w3.org/2000/svg" xmlns:ev="http://www.w3.org/2001/xml-events" xmlns:xlink="http://www.w3.org/1999/xlink" baseProfile="full" height="64px" version="1.1" viewBox="0 0 30 64" width="30px">
  <defs/>
  <g id="x0a090f_r10_g9_b15_a1.0">
    <path d="M 19,33 20,33 20,40 21,40 21,42 22,42 22,40 23,40 23,39 24,39 24,38 27,38 27,39 28,39 28,40 28,42 27,42 27,43 26,43 26,44 25,44 25,46 29,46 29,47 29,48 24,48 24,47 23,47 23,46 21,46 21,49 20,49 20,52 20,53 19,53 19,54 19,55 18,55 18,56 17,56 17,57 16,57 16,58 15,58 15,59 14,59 14,60 13,60 11,60 11,61 8,61 4,61 4,60 3,60 3,59 2,59 2,54 3,54 3,53 4,53 4,52 5,52 5,51 6,51 6,50 7,50 7,49 9,49 9,48 11,48 11,47 13,47 13,46 15,46 15,45 17,45 17,44 19,44 19,42 19,41 18,41 18,40 18,34 17,34 17,27 16,27 16,29 15,29 15,31 14,31 14,32 13,32 13,34 12,34 12,36 11,36 11,38 10,38 10,39 9,39 9,40 8,40 8,42 7,42 7,43 6,43 6,44 5,44 5,45 4,45 4,46 2,46 2,47 0,47 0,46 0,45 1,45 1,44 3,44 3,43 4,43 4,42 5,42 5,41 6,41 6,39 7,39 7,38 8,38 8,37 9,37 9,35 10,35 10,33 11,33 11,31 12,31 12,30 13,30 13,28 14,28 14,26 15,26 15,25 16,25 16,23 17,23 17,21 19,21 z M 16,47 16,48 14,48 14,49 12,49 12,50 11,50 10,50 10,51 9,51 8,51 8,52 7,52 7,53 6,53 6,54 5,54 5,55 4,55 4,58 5,58 5,59 10,59 10,58 13,58 13,57 14,57 14,56 15,56 15,55 16,55 16,54 17,54 17,52 18,52 18,50 18,48 19,48 19,47 z M 25,41 26,41 26,40 25,40 25,41 24,41 24,42 25,42 z" fill="#0a090f" fill-opacity="1.0" id="x0a090f_r10_g9_b15_a1.0_shape1"/>
    <path d="M 23,17 22,17 22,18 20,18 20,17 19,17 19,16 18,16 18,15 18,13 19,13 19,12 20,12 20,11 22,11 22,12 23,12 23,13 z" fill="#0a090f" fill-opacity="1.0" id="x0a090f_r10_g9_b15_a1.0_shape2"/>
  </g>
</svg>
