<?xml version="1.0" encoding="utf-8" ?>
<svg xmlns="http://www.w3.org/2000/svg" xmlns:ev="http://www.w3.org/2001/xml-events" xmlns:xlink="http://www.w3.org/1999/xlink" baseProfile="full" height="64px" version="1.1" viewBox="0 0 30 64" width="30px">
  <defs/>
  <g id="x0a090f_r10_g9_b15_a1.0">
    <path d="M 17,47 16,47 16,48 12,48 12,47 11,47 11,46 10,46 10,42 9,42 9,45 8,45 8,47 6,47 6,45 7,45 7,41 8,41 8,39 9,39 9,37 10,37 10,36 11,36 11,34 12,34 12,33 13,33 13,32 14,32 14,31 17,31 17,32 18,32 18,33 19,33 19,39 19,41 23,41 23,42 24,42 24,44 23,44 23,45 22,45 22,46 25,46 25,47 25,48 20,48 20,47 19,47 19,45 20,45 20,44 18,44 18,46 17,46 z M 17,34 16,34 16,33 15,33 15,34 14,34 14,35 13,35 13,37 12,37 12,38 11,38 11,39 13,39 13,40 15,40 15,41 17,41 z M 16,43 14,43 14,42 12,42 12,45 13,45 13,46 15,46 15,45 16,45 z M 21,44 21,43 20,43 20,44 z" fill="#0a090f" fill-opacity="1.0" id="x0a090f_r10_g9_b15_a1.0_shape1"/>
  </g>
</svg>
