<?xml version="1.0" encoding="utf-8" ?>
<svg xmlns="http://www.w3.org/2000/svg" xmlns:ev="http://www.w3.org/2001/xml-events" xmlns:xlink="http://www.w3.org/1999/xlink" baseProfile="full" height="64px" version="1.1" viewBox="0 0 30 64" width="30px">
  <defs/>
  <g id="x0a090f_r10_g9_b15_a1.0">
    <path d="M 15,43 16,43 16,42 15,42 15,41 14,41 14,36 15,36 15,35 17,35 17,36 18,36 18,37 19,37 19,40 19,41 22,41 22,43 20,43 20,44 17,44 17,45 16,45 16,46 15,46 15,47 13,47 13,48 12,48 12,49 10,49 10,48 9,48 9,47 8,47 8,43 7,43 7,46 6,46 6,48 4,48 4,45 5,45 5,42 6,42 6,37 8,37 8,36 11,36 11,37 12,37 12,40 11,40 11,43 10,43 10,46 12,46 12,45 14,45 14,44 15,44 z M 17,40 17,38 16,38 16,40 z M 9,39 10,39 10,38 9,38 9,39 8,39 8,42 9,42 9,40 z" fill="#0a090f" fill-opacity="1.0" id="x0a090f_r10_g9_b15_a1.0_shape1"/>
  </g>
</svg>
