<?xml version="1.0" encoding="utf-8" ?>
<svg xmlns="http://www.w3.org/2000/svg" xmlns:ev="http://www.w3.org/2001/xml-events" xmlns:xlink="http://www.w3.org/1999/xlink" baseProfile="full" height="64px" version="1.1" viewBox="0 0 30 64" width="30px">
  <defs/>
  <g id="x0a090f_r10_g9_b15_a1.0">
    <path d="M 21,42 20,42 20,44 21,44 21,45 22,45 22,46 24,46 24,48 21,48 21,47 19,47 19,46 16,46 16,47 12,47 12,46 10,46 10,47 9,47 9,48 7,48 6,48 6,46 7,46 8,46 8,45 9,45 9,40 10,40 10,37 11,37 11,36 12,36 12,35 13,35 13,34 17,34 17,35 18,35 18,36 19,36 19,37 20,37 20,36 21,36 z M 11,44 13,44 13,45 15,45 15,44 17,44 17,43 18,43 18,42 18,41 18,38 17,38 17,37 16,37 16,36 14,36 14,37 13,37 13,38 13,39 12,39 12,40 12,41 11,41 11,42 z" fill="#0a090f" fill-opacity="1.0" id="x0a090f_r10_g9_b15_a1.0_shape1"/>
  </g>
</svg>
