<?xml version="1.0" encoding="utf-8" ?>
<svg xmlns="http://www.w3.org/2000/svg" xmlns:ev="http://www.w3.org/2001/xml-events" xmlns:xlink="http://www.w3.org/1999/xlink" baseProfile="full" height="64px" version="1.1" viewBox="0 0 30 64" width="30px">
  <defs/>
  <g id="x0a090f_r10_g9_b15_a1.0">
    <path d="M 29,45 28,45 28,47 27,47 27,49 26,49 26,50 26,51 25,51 25,52 24,52 24,53 23,53 22,53 22,54 21,54 21,55 20,55 19,55 18,55 18,56 17,56 11,56 11,55 10,55 10,54 8,54 8,53 7,53 7,51 6,51 6,47 5,47 5,42 6,42 6,40 5,40 5,41 4,41 4,42 4,43 3,43 3,44 3,45 4,45 4,46 4,49 1,49 1,48 0,48 0,46 1,46 1,47 2,47 2,46 1,46 1,43 1,42 2,42 2,41 2,40 3,40 3,39 4,39 4,38 5,38 5,36 4,36 4,34 4,29 5,29 5,26 6,26 6,25 7,25 7,24 8,24 8,23 9,23 9,22 10,22 10,21 11,21 11,20 14,20 20,20 20,21 22,21 22,22 23,22 23,23 24,23 24,24 25,24 25,25 26,25 26,26 27,26 27,27 28,27 28,30 29,30 29,36 30,36 30,38 29,38 29,41 30,41 30,43 29,43 z M 26,28 25,28 25,27 24,27 24,26 23,26 23,25 22,25 22,24 21,24 21,23 20,23 19,23 19,22 18,22 17,22 12,22 12,23 11,23 11,24 10,24 10,25 9,25 9,26 8,26 8,27 7,27 7,30 6,30 6,32 6,35 7,35 7,36 8,36 9,36 9,35 10,35 10,34 12,34 14,34 15,34 15,35 16,35 16,36 17,36 17,37 18,37 18,39 19,39 19,42 20,42 20,43 21,43 21,44 23,44 24,44 24,43 25,43 25,42 26,42 26,41 27,41 27,39 27,37 27,31 26,31 z M 13,37 13,36 11,36 11,38 12,38 12,39 13,39 13,44 12,44 12,45 9,45 9,44 8,44 8,43 7,43 7,46 8,46 8,49 9,49 9,51 10,51 10,52 11,52 11,53 12,53 12,54 17,54 17,53 20,53 20,52 21,52 21,51 22,51 23,51 23,50 24,50 24,48 25,48 25,46 26,46 26,45 25,45 25,46 20,46 20,45 19,45 19,44 18,44 18,43 17,43 17,42 16,42 16,39 15,39 15,38 14,38 14,37 z M 10,39 8,39 8,40 9,40 9,42 10,42 10,43 11,43 11,40 10,40 z" fill="#0a090f" fill-opacity="1.0" id="x0a090f_r10_g9_b15_a1.0_shape1"/>
  </g>
</svg>
