<?xml version="1.0" encoding="utf-8" ?>
<svg xmlns="http://www.w3.org/2000/svg" xmlns:ev="http://www.w3.org/2001/xml-events" xmlns:xlink="http://www.w3.org/1999/xlink" baseProfile="full" height="64px" version="1.1" viewBox="0 0 30 64" width="30px">
  <defs/>
  <g id="x0a090f_r10_g9_b15_a1.0">
    <path d="M 8,42 8,41 9,41 9,40 9,37 10,37 10,36 11,36 11,35 12,35 13,35 13,36 14,36 14,37 15,37 15,36 16,36 16,35 17,35 17,34 18,34 18,35 19,35 19,36 20,36 20,46 21,46 21,47 22,47 22,46 24,46 24,48 22,48 22,49 20,49 20,48 19,48 19,47 18,47 18,41 18,38 16,38 16,40 15,40 15,42 15,44 14,44 14,46 12,46 12,42 13,42 13,38 11,38 11,42 10,42 10,46 9,46 9,47 8,47 8,48 6,48 6,46 7,46 7,45 8,45 z" fill="#0a090f" fill-opacity="1.0" id="x0a090f_r10_g9_b15_a1.0_shape1"/>
  </g>
</svg>
