<?xml version="1.0" encoding="utf-8" ?>
<svg xmlns="http://www.w3.org/2000/svg" xmlns:ev="http://www.w3.org/2001/xml-events" xmlns:xlink="http://www.w3.org/1999/xlink" baseProfile="full" height="64px" version="1.1" viewBox="0 0 30 64" width="30px">
  <defs/>
  <g id="x0a090f_r10_g9_b15_a1.0">
    <path d="M 7,51 7,49 5,49 5,48 4,48 4,46 6,46 6,47 7,47 7,45 7,42 8,42 8,38 9,38 9,35 10,35 10,31 11,31 11,29 12,29 12,26 13,26 13,23 14,23 14,22 15,22 15,20 16,20 16,19 17,19 17,18 18,18 18,17 19,17 19,16 21,16 21,15 24,15 24,16 25,16 25,17 26,17 26,18 27,18 27,20 27,26 27,28 26,28 26,30 26,31 25,31 25,32 25,34 24,34 24,35 23,35 23,37 22,37 22,38 21,38 21,40 20,40 20,41 19,41 19,42 22,42 23,42 23,46 22,46 22,47 23,47 23,48 25,48 25,47 24,47 24,45 24,44 25,44 25,43 25,42 26,42 26,41 28,41 28,42 29,42 29,43 30,43 30,45 29,45 29,46 30,46 30,48 27,48 27,49 26,49 26,50 24,50 24,51 22,51 22,50 21,50 21,49 20,49 20,45 21,45 21,44 16,44 16,45 15,45 15,46 14,46 14,47 13,47 13,48 12,48 12,49 11,49 11,50 10,50 10,53 8,53 8,51 z M 24,19 24,18 23,18 23,17 22,17 22,18 21,18 20,18 20,19 19,19 19,20 18,20 18,21 17,21 17,22 17,23 16,23 16,24 15,24 15,27 14,27 14,29 14,30 13,30 13,31 13,32 12,32 12,33 12,36 11,36 11,39 10,39 10,43 9,43 9,46 10,46 10,45 12,45 12,44 13,44 13,43 14,43 14,42 15,42 15,41 17,41 17,40 18,40 18,39 19,39 19,37 20,37 20,36 21,36 21,34 22,34 22,33 23,33 23,30 24,30 24,27 25,27 25,19 z M 28,46 28,44 27,44 27,46 z" fill="#0a090f" fill-opacity="1.0" id="x0a090f_r10_g9_b15_a1.0_shape1"/>
  </g>
</svg>
