<?xml version="1.0" encoding="utf-8" ?>
<svg xmlns="http://www.w3.org/2000/svg" xmlns:ev="http://www.w3.org/2001/xml-events" xmlns:xlink="http://www.w3.org/1999/xlink" baseProfile="full" height="64px" version="1.1" viewBox="0 0 30 64" width="30px">
  <defs/>
  <g id="x0a090f_r10_g9_b15_a1.0">
    <path d="M 18,40 17,40 17,41 16,41 16,42 15,42 15,43 13,43 13,42 12,42 12,43 11,43 11,44 8,44 8,43 7,43 7,41 9,41 9,42 10,42 10,37 11,37 11,36 12,36 12,35 13,35 13,34 14,34 14,33 15,33 17,33 17,34 18,34 18,35 19,35 19,37 19,39 20,39 20,42 20,43 21,43 21,44 23,44 23,46 24,46 24,48 22,48 22,46 21,46 21,49 20,49 20,54 19,54 19,56 18,56 18,58 17,58 17,59 16,59 16,60 15,60 15,61 14,61 14,62 11,62 11,61 10,61 10,60 9,60 9,55 10,55 10,51 11,51 11,49 12,49 12,48 13,48 13,47 14,47 14,46 15,46 15,45 18,45 18,44 z M 17,47 16,47 16,48 15,48 15,49 14,49 14,50 13,50 13,52 12,52 12,56 11,56 11,59 12,59 12,60 13,60 13,59 14,59 14,58 15,58 15,57 16,57 16,55 17,55 17,53 18,53 18,48 19,48 19,47 z M 15,40 15,39 16,39 16,36 14,36 14,37 13,37 13,40 z" fill="#0a090f" fill-opacity="1.0" id="x0a090f_r10_g9_b15_a1.0_shape1"/>
  </g>
</svg>
