<?xml version="1.0" encoding="utf-8" ?>
<svg xmlns="http://www.w3.org/2000/svg" xmlns:ev="http://www.w3.org/2001/xml-events" xmlns:xlink="http://www.w3.org/1999/xlink" baseProfile="full" height="64px" version="1.1" viewBox="0 0 30 64" width="30px">
  <defs/>
  <g id="x0a090f_r10_g9_b15_a1.0">
    <path d="M 17,32 19,32 19,35 19,39 18,39 18,42 19,42 19,43 20,43 20,44 21,44 21,46 21,47 21,48 22,48 23,48 23,49 24,49 24,48 25,48 25,47 25,46 27,46 27,47 27,49 26,49 26,50 25,50 25,51 23,51 22,51 22,50 21,50 21,51 20,51 20,52 20,53 19,53 19,54 19,55 18,55 18,56 18,57 17,57 17,58 16,58 16,59 15,59 15,60 14,60 14,61 13,61 13,62 12,62 11,62 11,61 10,61 10,60 9,60 9,59 9,58 10,58 10,57 10,56 11,56 11,55 11,54 12,54 12,53 13,53 13,52 14,52 14,51 15,51 15,50 16,50 17,50 17,49 18,49 19,49 19,48 19,47 19,45 18,45 17,45 17,46 16,46 16,47 15,47 15,48 13,48 13,46 14,46 14,43 15,43 15,41 16,41 16,38 17,38 17,36 16,36 16,37 15,37 15,38 14,38 14,39 13,39 13,40 11,40 11,42 10,42 10,43 9,43 9,44 8,44 8,45 6,45 6,44 5,44 5,43 4,43 4,41 5,41 6,41 6,42 7,42 8,42 8,40 7,40 7,38 12,38 12,37 13,37 13,36 14,36 14,35 15,35 15,34 16,34 16,33 17,33 z M 15,56 16,56 16,55 16,54 17,54 17,53 17,52 16,52 16,53 15,53 15,54 14,54 14,55 13,55 13,56 13,57 12,57 12,58 12,59 13,59 13,58 14,58 14,57 15,57 z" fill="#0a090f" fill-opacity="1.0" id="x0a090f_r10_g9_b15_a1.0_shape1"/>
  </g>
</svg>
