<?xml version="1.0" encoding="utf-8" ?>
<svg xmlns="http://www.w3.org/2000/svg" xmlns:ev="http://www.w3.org/2001/xml-events" xmlns:xlink="http://www.w3.org/1999/xlink" baseProfile="full" height="64px" version="1.1" viewBox="0 0 30 64" width="30px">
  <defs/>
  <g id="x0a090f_r10_g9_b15_a1.0">
    <path d="M 6,25 6,24 7,24 7,23 8,23 8,22 10,22 10,21 12,21 12,20 18,20 18,21 19,21 19,22 20,22 20,23 21,23 21,24 22,24 22,25 23,25 23,27 24,27 24,26 25,26 25,25 27,25 27,27 26,27 26,28 25,28 25,29 24,29 24,35 24,36 23,36 23,37 23,39 22,39 22,41 22,44 23,44 23,43 24,43 24,42 26,42 26,43 27,43 27,44 28,44 28,46 30,46 30,48 28,48 28,49 26,49 26,50 25,50 25,51 22,51 22,50 21,50 21,49 20,49 20,47 19,47 19,45 17,45 17,46 16,46 16,47 14,47 14,48 8,48 8,47 6,47 6,46 5,46 5,45 4,45 4,44 3,44 3,41 2,41 2,45 3,45 3,47 1,47 1,46 0,46 0,39 1,39 1,32 2,32 2,29 3,29 3,28 4,28 4,26 5,26 5,25 z M 17,42 19,42 19,40 20,40 20,35 21,35 21,26 20,26 20,25 19,25 19,24 18,24 18,23 17,23 17,22 15,22 13,22 13,23 11,23 11,24 9,24 9,25 8,25 8,26 7,26 7,27 6,27 6,28 6,29 5,29 5,30 4,30 4,37 4,40 5,40 5,43 6,43 6,44 7,44 7,45 9,45 9,46 13,46 13,45 15,45 15,44 16,44 16,43 17,43 z M 26,45 25,45 25,46 26,46 z M 24,47 22,47 22,48 23,48 23,49 24,49 z" fill="#0a090f" fill-opacity="1.0" id="x0a090f_r10_g9_b15_a1.0_shape1"/>
  </g>
</svg>
