<?xml version="1.0" encoding="utf-8" ?>
<svg xmlns="http://www.w3.org/2000/svg" xmlns:ev="http://www.w3.org/2001/xml-events" xmlns:xlink="http://www.w3.org/1999/xlink" baseProfile="full" height="64px" version="1.1" viewBox="0 0 30 64" width="30px">
  <defs/>
  <g id="x0a090f_r10_g9_b15_a1.0">
    <path d="M 17,47 16,47 16,48 14,48 14,49 6,49 6,48 4,48 4,47 2,47 2,48 0,48 0,46 2,46 2,45 1,45 1,43 0,43 0,41 0,32 1,32 1,29 2,29 2,26 3,26 3,25 4,25 4,24 5,24 5,23 6,23 6,22 8,22 8,21 13,21 13,22 15,22 15,23 16,23 16,24 17,24 17,25 18,25 18,26 19,26 19,28 20,28 20,21 21,21 21,18 22,18 22,17 23,17 23,16 24,16 24,15 26,15 26,16 27,16 27,18 28,18 28,22 27,22 27,26 26,26 26,27 25,27 25,30 24,30 24,32 23,32 23,34 22,34 22,37 21,37 21,41 20,41 20,45 19,45 19,49 18,49 18,51 21,51 21,50 22,50 22,49 23,49 23,47 22,47 22,45 21,45 21,43 22,43 22,42 23,42 23,41 24,41 24,40 26,40 26,41 27,41 27,43 27,46 30,46 30,48 27,48 27,49 25,49 25,50 24,50 24,51 23,51 23,52 22,52 22,53 20,53 20,54 18,54 18,53 17,53 17,52 16,52 16,48 17,48 z M 18,37 19,37 19,34 18,34 18,29 17,29 17,27 16,27 16,26 15,26 15,25 14,25 14,24 12,24 12,23 9,23 9,24 7,24 7,25 6,25 6,26 5,26 5,27 4,27 4,30 3,30 3,34 2,34 2,41 3,41 3,43 5,43 5,45 6,45 6,46 7,46 7,47 13,47 13,46 15,46 15,45 16,45 16,44 17,44 17,42 18,42 z M 25,25 25,21 26,21 26,19 25,19 25,18 24,18 24,19 23,19 23,21 23,22 22,22 22,23 22,29 23,29 23,26 24,26 24,25 z M 25,46 25,43 24,43 24,46 z" fill="#0a090f" fill-opacity="1.0" id="x0a090f_r10_g9_b15_a1.0_shape1"/>
  </g>
</svg>
