<?xml version="1.0" encoding="utf-8" ?>
<svg xmlns="http://www.w3.org/2000/svg" xmlns:ev="http://www.w3.org/2001/xml-events" xmlns:xlink="http://www.w3.org/1999/xlink" baseProfile="full" height="64px" version="1.1" viewBox="0 0 30 64" width="30px">
  <defs/>
  <g id="x0a090f_r10_g9_b15_a1.0">
    <path d="M 17,47 16,47 16,48 15,48 13,48 13,47 12,47 12,46 11,46 11,44 10,44 10,43 9,43 8,43 8,41 9,41 10,41 10,40 11,40 11,38 12,38 12,36 13,36 13,35 14,35 15,35 15,34 16,34 16,33 17,33 17,32 17,25 19,25 19,26 20,26 20,27 21,27 21,32 22,32 22,36 21,36 21,42 22,42 22,44 23,44 23,45 25,45 25,48 24,48 24,47 23,47 22,47 22,46 21,46 21,45 20,45 20,44 19,44 19,45 18,45 18,46 17,46 z M 12,41 12,43 13,43 13,45 14,45 14,46 15,46 15,45 16,45 16,44 17,44 17,43 18,43 18,40 19,40 19,37 18,37 18,35 17,35 17,36 16,36 16,37 14,37 14,39 13,39 13,41 z" fill="#0a090f" fill-opacity="1.0" id="x0a090f_r10_g9_b15_a1.0_shape1"/>
  </g>
</svg>
