<?xml version="1.0" encoding="utf-8" ?>
<svg xmlns="http://www.w3.org/2000/svg" xmlns:ev="http://www.w3.org/2001/xml-events" xmlns:xlink="http://www.w3.org/1999/xlink" baseProfile="full" height="64px" version="1.1" viewBox="0 0 30 64" width="30px">
  <defs/>
  <g id="x0a090f_r10_g9_b15_a1.0">
    <path d="M 7,49 8,49 8,47 9,47 9,43 10,43 10,39 9,39 9,41 8,41 8,42 7,42 7,44 6,44 6,45 5,45 5,46 4,46 4,47 2,47 2,45 3,45 3,44 4,44 4,43 5,43 5,41 6,41 6,40 7,40 7,38 8,38 8,36 8,35 9,35 9,34 10,34 10,32 11,32 11,28 10,28 10,24 9,24 9,17 10,17 10,16 11,16 11,15 13,15 13,16 14,16 14,17 15,17 15,20 16,20 16,23 15,23 15,27 14,27 14,33 14,34 15,34 15,33 15,32 16,32 16,31 17,31 17,29 18,29 18,28 19,28 19,27 20,27 20,26 21,26 21,25 23,25 23,26 24,26 24,27 25,27 25,28 26,28 26,33 26,37 25,37 25,40 24,40 24,42 23,42 23,44 22,44 22,46 21,46 21,47 23,47 23,46 27,46 27,47 27,48 24,48 24,49 22,49 22,50 20,50 20,49 19,49 19,48 19,45 20,45 20,43 21,43 21,41 22,41 22,39 23,39 23,37 23,36 24,36 24,35 24,29 23,29 23,28 21,28 21,29 20,29 20,30 19,30 19,32 18,32 18,33 17,33 17,35 16,35 16,37 15,37 15,39 14,39 14,41 13,41 13,44 12,44 12,46 11,46 11,48 10,48 10,52 9,52 9,55 8,55 8,60 7,60 7,61 5,61 4,61 4,57 5,57 5,55 6,55 6,52 7,52 z M 10,38 10,39 11,39 11,38 11,37 10,37 z M 13,18 11,18 11,23 12,23 12,26 13,26 13,22 14,22 14,21 13,21 z" fill="#0a090f" fill-opacity="1.0" id="x0a090f_r10_g9_b15_a1.0_shape1"/>
  </g>
</svg>
