<?xml version="1.0" encoding="utf-8" ?>
<svg xmlns="http://www.w3.org/2000/svg" xmlns:ev="http://www.w3.org/2001/xml-events" xmlns:xlink="http://www.w3.org/1999/xlink" baseProfile="full" height="64px" version="1.1" viewBox="0 0 30 64" width="30px">
  <defs/>
  <g id="x0a090f_r10_g9_b15_a1.0">
    <path d="M 26,28 20,28 20,31 19,31 19,33 18,33 18,36 17,36 17,37 16,37 16,40 15,40 15,42 14,42 14,48 15,48 15,50 16,50 16,51 17,51 17,50 18,50 18,49 20,49 20,48 21,48 21,47 22,47 22,46 23,46 23,45 24,45 24,44 25,44 26,44 26,45 27,45 27,46 30,46 30,48 26,48 26,47 24,47 24,48 23,48 23,49 22,49 22,50 21,50 21,51 19,51 19,52 18,52 18,53 15,53 15,52 14,52 14,51 13,51 13,49 12,49 12,45 11,45 11,46 10,46 10,47 9,47 9,48 8,48 8,49 3,49 3,48 2,48 2,46 4,46 4,47 7,47 7,46 8,46 8,45 9,45 9,44 10,44 10,43 11,43 11,41 12,41 12,40 13,40 13,39 13,37 14,37 14,35 14,34 15,34 15,33 15,32 16,32 16,31 17,31 17,29 18,29 18,28 16,28 16,29 11,29 11,30 7,30 7,33 6,33 6,34 3,34 3,33 2,33 2,30 3,30 3,29 5,29 5,28 4,28 4,27 2,27 2,25 5,25 5,26 6,26 6,27 7,27 7,28 10,28 10,27 15,27 15,26 19,26 19,23 20,23 20,19 21,19 21,11 23,11 23,12 24,12 24,16 23,16 23,20 22,20 22,24 21,24 21,26 29,26 29,27 29,28 z M 4,31 4,32 5,32 5,31 z" fill="#0a090f" fill-opacity="1.0" id="x0a090f_r10_g9_b15_a1.0_shape1"/>
  </g>
</svg>
