<?xml version="1.0" encoding="utf-8" ?>
<svg xmlns="http://www.w3.org/2000/svg" xmlns:ev="http://www.w3.org/2001/xml-events" xmlns:xlink="http://www.w3.org/1999/xlink" baseProfile="full" height="64px" version="1.1" viewBox="0 0 30 64" width="30px">
  <defs/>
  <g id="x0a090f_r10_g9_b15_a1.0">
    <path d="M 17,47 16,47 16,46 15,46 15,43 11,43 11,41 15,41 15,37 16,37 16,36 17,36 17,35 18,35 18,34 20,34 20,35 21,35 21,37 18,37 18,38 17,38 17,45 18,45 18,46 19,46 19,47 21,47 21,46 24,46 24,48 22,48 22,49 18,49 18,48 17,48 z" fill="#0a090f" fill-opacity="1.0" id="x0a090f_r10_g9_b15_a1.0_shape1"/>
  </g>
</svg>
