<?xml version="1.0" encoding="utf-8" ?>
<svg xmlns="http://www.w3.org/2000/svg" xmlns:ev="http://www.w3.org/2001/xml-events" xmlns:xlink="http://www.w3.org/1999/xlink" baseProfile="full" height="64px" version="1.1" viewBox="0 0 30 64" width="30px">
  <defs/>
  <g id="x0a090f_r10_g9_b15_a1.0">
    <path d="M 17,47 16,47 16,45 15,45 15,46 14,46 14,47 13,47 13,48 11,48 11,46 12,46 12,45 13,45 13,44 14,44 14,43 15,43 15,42 14,42 14,40 14,37 13,37 13,33 13,32 13,21 14,21 14,18 15,18 15,17 16,17 16,16 18,16 18,18 19,18 19,20 20,20 20,35 19,35 19,38 18,38 18,41 17,41 17,43 18,43 18,45 19,45 19,46 20,46 20,45 21,45 21,43 20,43 20,42 19,42 19,40 20,40 20,39 22,39 22,40 23,40 23,41 25,41 25,43 23,43 23,46 22,46 22,47 21,47 21,48 17,48 z M 18,21 17,21 17,19 16,19 16,22 15,22 15,36 16,36 16,37 17,37 17,34 18,34 18,28 z" fill="#0a090f" fill-opacity="1.0" id="x0a090f_r10_g9_b15_a1.0_shape1"/>
  </g>
</svg>
