<?xml version="1.0" encoding="utf-8" ?>
<svg xmlns="http://www.w3.org/2000/svg" xmlns:ev="http://www.w3.org/2001/xml-events" xmlns:xlink="http://www.w3.org/1999/xlink" baseProfile="full" height="64px" version="1.1" viewBox="0 0 30 64" width="30px">
  <defs/>
  <g id="x0a090f_r10_g9_b15_a1.0">
    <path d="M 7,12 7,13 9,13 9,14 10,14 10,15 11,15 11,16 12,16 12,17 13,17 13,18 13,20 14,20 14,22 15,22 15,28 14,28 14,29 17,29 17,30 18,30 18,31 20,31 20,32 21,32 21,33 22,33 22,34 23,34 23,35 24,35 24,37 25,37 25,39 26,39 26,43 27,43 27,47 28,47 28,46 30,46 30,48 29,48 29,49 27,49 27,51 26,51 26,53 25,53 25,54 24,54 24,55 23,55 23,56 21,56 21,57 15,57 15,56 14,56 14,55 13,55 13,54 12,54 12,51 13,51 13,49 14,49 14,48 15,48 15,47 16,47 16,46 17,46 17,45 18,45 18,44 24,44 24,40 23,40 23,38 22,38 22,36 21,36 21,35 20,35 20,34 19,34 19,33 17,33 17,32 16,32 16,31 14,31 14,33 13,33 13,36 12,36 12,39 11,39 11,40 10,40 10,42 9,42 9,43 8,43 8,44 7,44 7,45 6,45 6,46 4,46 4,47 2,47 2,48 0,48 0,46 1,46 1,45 3,45 3,44 5,44 5,43 6,43 6,42 7,42 7,41 8,41 8,39 9,39 9,38 10,38 10,35 11,35 11,32 12,32 12,30 11,30 11,29 10,29 10,28 9,28 9,27 8,27 8,26 7,26 7,25 6,25 6,24 5,24 5,23 4,23 4,22 4,21 3,21 3,20 2,20 2,14 3,14 3,13 4,13 4,12 z M 6,21 6,22 7,22 7,23 8,23 8,24 9,24 9,25 10,25 10,26 11,26 11,27 12,27 13,27 13,26 13,25 13,23 12,23 12,21 11,21 11,19 11,18 10,18 10,17 9,17 9,16 8,16 8,15 6,15 6,14 5,14 5,15 4,15 4,17 4,19 5,19 5,20 6,20 z M 24,47 24,46 19,46 19,47 18,47 18,48 17,48 17,49 16,49 16,50 15,50 15,52 14,52 14,53 15,53 15,54 16,54 16,55 20,55 20,54 22,54 22,53 23,53 23,52 24,52 24,50 25,50 25,47 z" fill="#0a090f" fill-opacity="1.0" id="x0a090f_r10_g9_b15_a1.0_shape1"/>
  </g>
</svg>
