<?xml version="1.0" encoding="utf-8" ?>
<svg xmlns="http://www.w3.org/2000/svg" xmlns:ev="http://www.w3.org/2001/xml-events" xmlns:xlink="http://www.w3.org/1999/xlink" baseProfile="full" height="64px" version="1.1" viewBox="0 0 30 64" width="30px">
  <defs/>
  <g id="x0a090f_r10_g9_b15_a1.0">
    <path d="M 7,51 7,50 9,50 9,49 12,49 12,48 15,48 15,47 18,47 18,46 19,46 19,45 19,43 20,43 20,41 20,40 20,39 19,39 19,38 17,38 17,39 16,39 16,40 15,40 15,41 14,41 14,42 14,43 13,43 13,44 12,44 12,46 11,46 11,47 10,47 10,48 8,48 8,46 9,46 9,44 9,42 10,42 10,40 11,40 11,38 12,38 12,36 13,36 13,34 12,34 12,35 11,35 11,36 10,36 10,37 8,37 8,38 7,38 7,43 6,43 6,46 5,46 5,47 4,47 4,48 1,48 1,46 3,46 3,45 4,45 4,42 5,42 5,38 4,38 4,37 3,37 3,36 2,36 2,32 3,32 3,31 5,31 5,32 6,32 6,33 6,34 7,34 7,35 9,35 9,34 10,34 10,33 11,33 11,31 12,31 12,29 13,29 13,26 14,26 14,23 15,23 15,19 16,19 16,18 18,18 18,20 18,21 17,21 17,22 17,31 16,31 16,33 16,34 15,34 15,35 15,37 16,37 16,36 20,36 20,37 21,37 21,38 22,38 22,41 22,43 21,43 21,45 22,45 22,44 23,44 23,38 24,38 24,37 25,37 25,36 27,36 27,37 28,37 28,42 27,42 27,43 26,43 26,44 25,44 25,45 26,45 26,46 27,46 30,46 30,48 27,48 25,48 25,47 24,47 24,46 23,46 23,47 22,47 22,48 20,48 20,50 19,50 19,51 18,51 18,53 17,53 17,54 16,54 16,55 15,55 15,56 14,56 14,57 13,57 13,58 12,58 12,59 11,59 11,60 9,60 9,61 4,61 4,60 3,60 3,59 2,59 2,57 3,57 3,55 4,55 4,53 5,53 5,52 6,52 6,51 z M 8,59 8,58 10,58 10,57 11,57 11,56 12,56 12,55 13,55 13,54 14,54 14,53 15,53 15,52 16,52 16,51 16,50 14,50 13,50 13,51 12,51 11,51 10,51 10,52 9,52 8,52 8,53 7,53 7,54 6,54 6,55 6,56 5,56 5,57 5,59 6,59 z M 25,41 26,41 26,40 26,39 25,39 25,40 z M 14,32 13,32 13,33 14,33 z M 14,38 15,38 15,37 14,37 z" fill="#0a090f" fill-opacity="1.0" id="x0a090f_r10_g9_b15_a1.0_shape1"/>
  </g>
</svg>
