<?xml version="1.0" encoding="utf-8" ?>
<svg xmlns="http://www.w3.org/2000/svg" xmlns:ev="http://www.w3.org/2001/xml-events" xmlns:xlink="http://www.w3.org/1999/xlink" baseProfile="full" height="64px" version="1.1" viewBox="0 0 30 64" width="30px">
  <defs/>
  <g id="x0a090f_r10_g9_b15_a1.0">
    <path d="M 12,36 13,36 13,35 16,35 16,36 17,36 17,39 18,39 18,38 19,38 19,37 20,37 20,36 23,36 23,37 24,37 24,38 25,38 25,39 26,39 26,41 27,41 27,44 28,44 28,45 29,45 29,46 30,46 30,48 29,48 28,48 28,47 27,47 27,46 26,46 26,45 25,45 25,42 24,42 24,40 23,40 23,39 22,39 22,38 21,38 21,39 20,39 20,40 19,40 19,42 18,42 18,44 18,45 17,45 17,46 15,46 15,37 14,37 14,38 13,38 13,40 12,40 12,43 11,43 11,47 9,47 9,38 9,36 8,36 8,38 7,38 7,40 6,40 6,41 5,41 5,42 4,42 4,43 3,43 0,43 0,41 3,41 3,40 4,40 4,39 5,39 5,37 6,37 6,35 7,35 7,34 8,34 8,33 9,33 9,32 11,32 11,33 11,37 12,37 z" fill="#0a090f" fill-opacity="1.0" id="x0a090f_r10_g9_b15_a1.0_shape1"/>
  </g>
</svg>
