<?xml version="1.0" encoding="utf-8" ?>
<svg xmlns="http://www.w3.org/2000/svg" xmlns:ev="http://www.w3.org/2001/xml-events" xmlns:xlink="http://www.w3.org/1999/xlink" baseProfile="full" height="64px" version="1.1" viewBox="0 0 30 64" width="30px">
  <defs/>
  <g id="x0a090f_r10_g9_b15_a1.0">
    <path d="M 7,45 7,44 9,44 9,43 10,43 10,40 9,40 9,35 10,35 10,30 11,30 11,27 12,27 12,24 13,24 13,23 14,23 14,22 15,22 15,21 16,21 16,20 17,20 17,19 18,19 18,18 20,18 20,17 24,17 24,18 25,18 25,19 26,19 26,20 27,20 27,22 28,22 28,30 27,30 27,32 26,32 26,34 25,34 25,35 24,35 24,36 23,36 23,37 22,37 22,38 20,38 20,39 19,39 19,40 23,40 23,41 24,41 24,42 25,42 25,43 26,43 26,45 25,45 25,46 24,46 24,47 22,47 22,48 20,48 20,49 24,49 24,48 25,48 25,47 27,47 27,46 29,46 29,48 28,48 28,49 26,49 26,50 25,50 25,51 19,51 19,50 18,50 18,49 16,49 16,50 17,50 17,59 16,59 16,60 15,60 15,61 14,61 14,62 13,62 13,63 3,63 3,62 2,62 2,61 1,61 1,59 2,59 2,56 3,56 3,55 4,55 4,54 5,54 5,53 6,53 6,52 7,52 7,51 8,51 8,50 10,50 10,49 11,49 11,48 13,48 13,47 12,47 12,46 11,46 11,45 10,45 10,46 8,46 8,47 6,47 6,48 2,48 2,46 5,46 5,45 z M 17,45 17,46 19,46 21,46 21,45 23,45 23,43 22,43 22,42 20,42 20,43 19,43 19,44 18,44 18,45 z M 13,43 13,45 14,45 14,46 15,46 15,44 16,44 16,43 17,43 17,42 18,42 18,41 17,41 17,42 15,42 15,43 z M 12,39 12,41 13,41 14,41 14,40 15,40 16,40 16,39 17,39 17,38 18,38 18,37 19,37 19,36 20,36 21,36 21,35 22,35 22,34 23,34 23,33 24,33 24,31 25,31 25,29 26,29 26,27 26,25 26,23 25,23 25,21 24,21 24,20 23,20 23,19 21,19 21,20 19,20 19,21 18,21 18,22 17,22 17,23 16,23 16,24 15,24 15,25 14,25 14,28 13,28 13,31 12,31 12,36 11,36 11,39 z M 18,40 18,41 19,41 19,40 z M 12,61 12,60 13,60 13,59 14,59 14,58 15,58 15,51 14,51 14,50 12,50 12,51 11,51 11,52 10,52 9,52 9,53 8,53 8,54 7,54 7,55 6,55 6,56 5,56 5,57 4,57 4,58 4,61 z" fill="#0a090f" fill-opacity="1.0" id="x0a090f_r10_g9_b15_a1.0_shape1"/>
  </g>
</svg>
