<?xml version="1.0" encoding="utf-8" ?>
<svg xmlns="http://www.w3.org/2000/svg" xmlns:ev="http://www.w3.org/2001/xml-events" xmlns:xlink="http://www.w3.org/1999/xlink" baseProfile="full" height="64px" version="1.1" viewBox="0 0 30 64" width="30px">
  <defs/>
  <g id="x0a090f_r10_g9_b15_a1.0">
    <path d="M 7,40 8,40 8,34 9,34 9,30 10,30 10,27 11,27 11,24 12,24 12,22 13,22 13,20 14,20 14,19 15,19 15,18 16,18 16,17 17,17 17,16 19,16 19,15 22,15 23,15 23,16 24,16 24,17 25,17 25,18 26,18 26,28 25,28 25,30 24,30 24,33 23,33 23,34 22,34 22,36 21,36 21,37 20,37 20,39 19,39 19,40 18,40 18,41 17,41 17,43 16,43 16,44 15,44 15,45 14,45 14,46 13,46 13,47 12,47 12,48 11,48 11,49 10,49 10,50 9,50 9,52 13,52 13,51 15,51 15,50 16,50 16,49 17,49 17,48 18,48 18,47 19,47 19,46 22,46 22,45 25,45 25,46 29,46 29,48 25,48 25,47 23,47 23,48 20,48 20,49 19,49 19,50 18,50 18,51 17,51 17,52 16,52 16,53 14,53 14,54 11,54 11,55 9,55 9,54 8,54 8,53 7,53 7,51 2,51 2,50 1,50 1,48 0,48 0,46 2,46 2,47 3,47 3,49 7,49 z M 22,30 22,29 23,29 23,28 23,27 24,27 24,26 24,19 23,19 23,18 22,18 22,17 20,17 20,18 18,18 18,19 17,19 17,20 16,20 16,21 15,21 15,22 15,23 14,23 14,24 14,25 13,25 13,26 13,28 12,28 12,31 11,31 11,35 10,35 10,41 9,41 9,46 9,47 10,47 10,46 11,46 11,45 12,45 12,44 13,44 13,43 14,43 14,42 15,42 15,40 16,40 16,39 17,39 17,38 18,38 18,36 19,36 19,35 20,35 20,33 21,33 21,32 22,32 z" fill="#0a090f" fill-opacity="1.0" id="x0a090f_r10_g9_b15_a1.0_shape1"/>
  </g>
</svg>
