<?xml version="1.0" encoding="utf-8" ?>
<svg xmlns="http://www.w3.org/2000/svg" xmlns:ev="http://www.w3.org/2001/xml-events" xmlns:xlink="http://www.w3.org/1999/xlink" baseProfile="full" height="64px" version="1.1" viewBox="0 0 30 64" width="30px">
  <defs/>
  <g id="x0a090f_r10_g9_b15_a1.0">
    <path d="M 18,41 18,39 17,39 17,40 16,40 16,41 15,41 15,42 14,42 14,43 13,43 13,44 13,46 12,46 12,48 12,49 12,51 11,51 11,53 11,59 10,59 10,60 8,60 8,58 9,58 9,50 10,50 10,46 9,46 9,47 8,47 8,48 6,48 6,47 6,46 7,46 7,45 8,45 8,44 9,44 9,43 10,43 10,42 10,41 11,41 11,40 11,39 12,39 12,38 12,35 13,35 13,34 15,34 15,38 16,38 16,37 19,37 19,38 20,38 20,42 19,42 19,46 21,46 21,48 18,48 18,47 17,47 17,41 z M 15,38 14,38 14,39 15,39 z" fill="#0a090f" fill-opacity="1.0" id="x0a090f_r10_g9_b15_a1.0_shape1"/>
  </g>
</svg>
