<?xml version="1.0" encoding="utf-8" ?>
<svg xmlns="http://www.w3.org/2000/svg" xmlns:ev="http://www.w3.org/2001/xml-events" xmlns:xlink="http://www.w3.org/1999/xlink" baseProfile="full" height="64px" version="1.1" viewBox="0 0 30 64" width="30px">
  <defs/>
  <g id="x0a090f_r10_g9_b15_a1.0">
    <path d="M 9,42 8,42 8,39 6,39 6,40 5,40 5,42 6,42 6,43 7,43 7,47 6,47 6,48 3,48 3,46 5,46 5,44 4,44 4,43 3,43 3,40 3,39 4,39 4,38 5,38 5,37 6,37 8,37 8,34 9,34 9,31 10,31 10,29 11,29 11,27 12,27 12,26 13,26 13,25 14,25 14,24 16,24 16,23 26,23 26,24 27,24 27,25 28,25 28,27 29,27 29,32 29,33 28,33 28,34 27,34 27,35 26,35 26,36 25,36 25,37 23,37 23,38 21,38 20,38 20,39 19,39 16,39 16,40 11,40 10,40 10,41 11,41 11,44 12,44 12,45 13,45 13,46 14,46 14,47 15,47 15,48 21,48 21,47 22,47 22,43 23,43 23,42 26,42 26,43 27,43 27,46 26,46 26,47 27,47 27,46 30,46 30,48 28,48 28,49 22,49 22,50 14,50 14,49 13,49 13,48 12,48 12,47 11,47 11,46 10,46 10,45 9,45 z M 11,36 10,36 10,37 11,37 11,38 15,38 15,37 19,37 19,36 21,36 21,35 22,35 22,34 25,34 25,33 26,33 26,32 27,32 27,28 26,28 26,26 25,26 25,25 22,25 17,25 17,26 15,26 15,27 14,27 14,28 13,28 13,30 12,30 12,32 11,32 z M 24,45 25,45 25,44 24,44 z" fill="#0a090f" fill-opacity="1.0" id="x0a090f_r10_g9_b15_a1.0_shape1"/>
  </g>
</svg>
