<?xml version="1.0" encoding="utf-8" ?>
<svg xmlns="http://www.w3.org/2000/svg" xmlns:ev="http://www.w3.org/2001/xml-events" xmlns:xlink="http://www.w3.org/1999/xlink" baseProfile="full" height="64px" version="1.1" viewBox="0 0 30 64" width="30px">
  <defs/>
  <g id="x0a090f_r10_g9_b15_a1.0">
    <path d="M 26,43 26,44 27,44 27,46 30,46 30,48 28,48 28,49 26,49 26,48 25,48 25,45 24,45 24,46 23,46 23,47 22,47 22,48 21,48 21,51 19,51 19,52 17,52 17,53 14,53 14,52 13,52 13,51 13,50 11,50 9,50 7,50 7,49 6,49 6,51 5,51 5,54 3,54 3,51 3,50 3,48 2,48 0,48 0,46 1,46 2,46 2,45 3,45 3,44 4,44 4,43 4,41 5,41 5,39 6,39 6,36 7,36 7,33 8,33 8,31 9,31 9,29 10,29 10,28 11,28 11,26 12,26 12,25 13,25 13,23 14,23 14,22 15,22 15,21 16,21 16,20 17,20 17,19 18,19 18,18 19,18 19,17 20,17 20,16 21,16 21,15 24,15 25,15 27,15 27,16 28,16 28,17 29,17 29,19 29,27 28,27 28,29 27,29 27,30 26,30 26,31 25,31 25,32 24,32 24,33 23,33 23,34 22,34 22,35 21,35 21,36 20,36 20,37 19,37 19,38 18,38 18,39 16,39 16,40 19,40 19,41 20,41 20,44 19,44 19,46 18,46 18,47 17,47 17,48 16,48 16,49 15,49 15,51 16,51 16,50 17,50 17,49 18,49 18,48 19,48 19,47 20,47 20,46 21,46 21,45 22,45 22,44 23,44 23,43 z M 23,31 23,30 24,30 24,29 25,29 25,28 26,28 26,26 27,26 27,24 27,18 26,18 26,17 22,17 22,18 21,18 21,19 20,19 20,20 19,20 19,21 18,21 18,22 17,22 17,23 16,23 16,24 15,24 15,26 14,26 14,27 13,27 13,29 12,29 12,30 11,30 11,32 10,32 10,34 9,34 9,37 8,37 8,40 7,40 7,42 8,42 8,41 10,41 10,40 12,40 12,39 13,39 13,38 15,38 15,37 17,37 17,36 18,36 18,35 19,35 19,34 20,34 20,33 21,33 21,32 22,32 22,31 z M 11,48 11,47 8,47 8,48 z M 15,43 12,43 12,44 11,44 11,45 12,45 12,46 13,46 13,47 15,47 15,46 16,46 16,45 17,45 17,43 18,43 18,42 17,42 15,42 z M 7,45 6,45 6,46 7,46 7,45 8,45 8,44 7,44 z" fill="#0a090f" fill-opacity="1.0" id="x0a090f_r10_g9_b15_a1.0_shape1"/>
  </g>
</svg>
