<?xml version="1.0" encoding="utf-8" ?>
<svg xmlns="http://www.w3.org/2000/svg" xmlns:ev="http://www.w3.org/2001/xml-events" xmlns:xlink="http://www.w3.org/1999/xlink" baseProfile="full" height="64px" version="1.1" viewBox="0 0 30 64" width="30px">
  <defs/>
  <g id="x0a090f_r10_g9_b15_a1.0">
    <path d="M 19,45 18,45 18,37 17,37 17,38 13,38 13,42 12,42 12,43 9,43 9,41 11,41 11,36 12,36 12,35 13,35 14,35 14,36 15,36 16,36 16,35 17,35 17,34 18,34 18,33 20,33 20,39 20,44 21,44 21,46 22,46 22,48 20,48 20,47 19,47 z" fill="#0a090f" fill-opacity="1.0" id="x0a090f_r10_g9_b15_a1.0_shape1"/>
  </g>
</svg>
