<?xml version="1.0" encoding="utf-8" ?>
<svg xmlns="http://www.w3.org/2000/svg" xmlns:ev="http://www.w3.org/2001/xml-events" xmlns:xlink="http://www.w3.org/1999/xlink" baseProfile="full" height="64px" version="1.1" viewBox="0 0 30 64" width="30px">
  <defs/>
  <g id="x0a090f_r10_g9_b15_a1.0">
    <path d="M 23,40 22,40 22,41 21,41 21,42 20,42 20,43 19,43 19,44 18,44 17,44 17,45 16,45 16,46 15,46 14,46 9,46 9,45 8,45 8,46 7,46 7,47 6,47 6,48 3,48 3,46 5,46 5,45 6,45 6,44 7,44 7,43 6,43 6,41 5,41 5,39 5,37 5,35 6,35 6,32 7,32 7,31 8,31 8,29 9,29 9,28 10,28 10,27 11,27 11,26 12,26 13,26 13,25 14,25 14,24 23,24 23,25 24,25 24,26 25,26 25,27 28,27 28,29 27,29 27,39 26,39 26,48 27,48 27,46 29,46 29,49 28,49 28,50 25,50 25,51 24,51 24,53 23,53 23,55 22,55 22,56 21,56 21,57 20,57 20,58 19,58 19,59 18,59 18,60 16,60 16,61 14,61 14,62 6,62 6,61 5,61 5,60 4,60 4,55 5,55 5,54 6,54 6,53 7,53 7,52 8,52 8,51 10,51 10,50 12,50 12,49 15,49 15,48 23,48 23,47 24,47 24,42 24,39 23,39 z M 13,51 13,52 11,52 11,53 9,53 9,54 8,54 8,55 7,55 7,56 6,56 6,59 7,59 7,60 10,60 13,60 13,59 15,59 15,58 17,58 17,57 18,57 18,56 19,56 19,55 20,55 20,54 21,54 21,52 22,52 22,50 16,50 16,51 z M 15,44 15,43 16,43 16,42 18,42 18,41 19,41 19,40 20,40 20,39 21,39 21,38 22,38 22,36 23,36 23,33 24,33 24,28 23,28 23,27 22,27 22,26 15,26 15,27 14,27 14,28 12,28 12,29 11,29 11,30 10,30 10,32 9,32 9,33 8,33 8,36 7,36 7,40 8,40 8,42 9,42 9,43 10,43 10,44 z" fill="#0a090f" fill-opacity="1.0" id="x0a090f_r10_g9_b15_a1.0_shape1"/>
  </g>
</svg>
