<?xml version="1.0" encoding="utf-8" ?>
<svg xmlns="http://www.w3.org/2000/svg" xmlns:ev="http://www.w3.org/2001/xml-events" xmlns:xlink="http://www.w3.org/1999/xlink" baseProfile="full" height="64px" version="1.1" viewBox="0 0 30 64" width="30px">
  <defs/>
  <g id="x0a090f_r10_g9_b15_a1.0">
    <path d="M 7,51 7,49 6,49 6,43 5,43 5,45 4,45 4,46 3,46 3,47 2,47 2,48 0,48 0,46 1,46 1,45 2,45 2,44 3,44 3,42 4,42 4,40 5,40 5,38 6,38 6,35 7,35 7,33 7,29 8,29 8,25 9,25 9,23 10,23 10,20 12,20 12,22 12,26 11,26 11,31 10,31 10,34 9,34 9,37 8,37 8,40 8,48 9,48 9,50 10,50 10,51 11,51 11,52 13,52 14,52 14,51 15,51 16,51 16,50 17,50 17,49 18,49 18,48 19,48 19,47 20,47 20,45 21,45 21,43 22,43 22,41 21,41 21,38 20,38 20,32 20,31 19,31 19,30 19,21 19,18 20,18 20,17 21,17 21,16 22,16 22,15 24,15 24,16 25,16 25,20 26,20 26,24 27,24 27,27 27,37 26,37 26,40 25,40 25,42 24,42 24,43 25,43 25,45 26,45 26,46 29,46 29,45 30,45 30,48 25,48 25,47 24,47 24,46 22,46 22,48 21,48 21,49 20,49 20,50 19,50 19,51 18,51 18,52 17,52 17,53 15,53 15,54 10,54 10,53 9,53 9,52 8,52 8,51 z M 21,30 22,30 22,37 23,37 23,39 24,39 24,36 25,36 25,28 25,25 24,25 24,21 23,21 23,18 22,18 22,19 21,19 21,20 21,23 z" fill="#0a090f" fill-opacity="1.0" id="x0a090f_r10_g9_b15_a1.0_shape1"/>
  </g>
</svg>
