<?xml version="1.0" encoding="utf-8" ?>
<svg xmlns="http://www.w3.org/2000/svg" xmlns:ev="http://www.w3.org/2001/xml-events" xmlns:xlink="http://www.w3.org/1999/xlink" baseProfile="full" height="64px" version="1.1" viewBox="0 0 30 64" width="30px">
  <defs/>
  <g id="x0a090f_r10_g9_b15_a1.0">
    <path d="M 7,51 7,50 6,50 6,48 1,48 1,46 5,46 5,43 4,43 4,38 3,38 3,28 3,27 4,27 4,26 4,23 4,21 5,21 5,19 6,19 6,18 7,18 7,17 10,17 10,18 12,18 12,19 13,19 13,20 15,20 15,19 15,18 16,18 16,17 17,17 17,16 18,16 22,16 22,17 23,17 23,18 24,18 24,19 25,19 25,21 26,21 26,25 27,25 27,29 27,35 26,35 26,40 25,40 25,42 24,42 24,43 23,43 23,44 22,44 22,45 21,45 21,47 20,47 20,52 21,52 21,53 22,53 22,54 24,54 24,53 22,53 22,52 21,52 21,48 22,48 22,47 23,47 23,46 26,46 26,47 27,47 27,48 28,48 28,46 30,46 30,49 29,49 29,50 28,50 28,51 27,51 27,54 26,54 26,55 25,55 25,56 21,56 21,55 20,55 20,54 19,54 19,53 18,53 18,46 19,46 19,44 20,44 20,43 21,43 21,42 22,42 22,41 23,41 23,39 24,39 24,34 25,34 25,26 24,26 24,22 23,22 23,20 22,20 22,19 21,19 21,18 18,18 18,20 17,20 17,21 16,21 16,23 15,23 15,25 16,25 16,33 16,34 15,34 15,35 15,36 14,36 14,37 11,37 11,36 10,36 10,27 11,27 11,24 12,24 12,21 11,21 11,20 9,20 9,19 8,19 8,20 7,20 7,22 6,22 6,28 5,28 5,37 6,37 6,42 7,42 7,45 11,45 11,46 12,46 12,47 13,47 13,51 12,51 12,52 11,52 11,53 9,53 9,52 8,52 8,51 z M 13,28 12,28 12,34 12,35 13,35 13,34 13,33 14,33 14,32 14,28 14,26 13,26 z M 8,49 9,49 9,50 10,50 11,50 11,49 11,48 10,48 10,47 9,47 8,47 8,48 z M 25,48 24,48 24,49 23,49 23,51 25,51 z" fill="#0a090f" fill-opacity="1.0" id="x0a090f_r10_g9_b15_a1.0_shape1"/>
  </g>
</svg>
