<?xml version="1.0" encoding="utf-8" ?>
<svg xmlns="http://www.w3.org/2000/svg" xmlns:ev="http://www.w3.org/2001/xml-events" xmlns:xlink="http://www.w3.org/1999/xlink" baseProfile="full" height="64px" version="1.1" viewBox="0 0 30 64" width="30px">
  <defs/>
  <g id="x0a090f_r10_g9_b15_a1.0">
    <path d="M 11,44 12,44 12,43 13,43 13,42 14,42 14,41 15,41 15,40 16,40 16,38 17,38 17,36 17,34 18,34 18,31 18,28 19,28 19,23 20,23 20,22 21,22 22,22 22,23 23,23 23,28 22,28 22,31 21,31 21,34 20,34 20,36 19,36 19,41 19,48 20,48 20,49 21,49 21,50 22,50 22,49 23,49 23,48 24,48 24,47 23,47 23,46 22,46 22,43 23,43 23,42 24,42 24,41 26,41 26,42 27,42 27,43 28,43 28,46 30,46 30,48 28,48 28,49 25,49 25,50 24,50 24,51 23,51 23,52 20,52 20,51 19,51 19,50 18,50 18,49 17,49 17,42 16,42 16,43 15,43 15,44 14,44 14,45 13,45 13,46 12,46 12,47 11,47 11,48 8,48 8,49 5,49 5,48 4,48 4,47 3,47 3,45 5,45 5,46 6,46 6,47 7,47 7,46 10,46 10,45 11,45 z M 26,44 24,44 24,45 25,45 25,46 26,46 z" fill="#0a090f" fill-opacity="1.0" id="x0a090f_r10_g9_b15_a1.0_shape1"/>
    <path d="M 16,17 16,16 15,16 15,13 16,13 16,12 18,12 18,13 19,13 19,14 19,17 z" fill="#0a090f" fill-opacity="1.0" id="x0a090f_r10_g9_b15_a1.0_shape2"/>
  </g>
</svg>
