<?xml version="1.0" encoding="utf-8" ?>
<svg xmlns="http://www.w3.org/2000/svg" xmlns:ev="http://www.w3.org/2001/xml-events" xmlns:xlink="http://www.w3.org/1999/xlink" baseProfile="full" height="64px" version="1.1" viewBox="0 0 30 64" width="30px">
  <defs/>
  <g id="x0a090f_r10_g9_b15_a1.0">
    <path d="M 15,50 15,49 14,49 14,46 15,46 15,45 16,45 16,44 17,44 17,42 16,42 16,41 15,41 15,40 14,40 14,42 13,42 13,43 12,43 12,44 9,44 7,44 7,43 6,43 6,41 8,41 8,42 11,42 11,40 12,40 12,37 11,37 11,36 10,36 10,34 9,34 9,32 8,32 8,28 9,28 9,27 10,27 10,26 12,26 12,27 13,27 13,28 14,28 14,29 15,29 15,38 16,38 16,39 18,39 18,40 19,40 19,42 20,42 20,43 21,43 21,44 22,44 22,46 23,46 23,48 21,48 21,47 20,47 20,49 19,49 19,50 z M 17,47 16,47 16,48 18,48 18,46 17,46 z M 13,30 12,30 12,29 10,29 10,31 11,31 11,33 12,33 12,35 13,35 z" fill="#0a090f" fill-opacity="1.0" id="x0a090f_r10_g9_b15_a1.0_shape1"/>
  </g>
</svg>
