<?xml version="1.0" encoding="utf-8" ?>
<svg xmlns="http://www.w3.org/2000/svg" xmlns:ev="http://www.w3.org/2001/xml-events" xmlns:xlink="http://www.w3.org/1999/xlink" baseProfile="full" height="64px" version="1.1" viewBox="0 0 30 64" width="30px">
  <defs/>
  <g id="x0a090f_r10_g9_b15_a1.0">
    <path d="M 8,53 9,53 9,50 10,50 10,48 11,48 11,46 12,46 12,44 13,44 13,43 12,43 12,42 11,42 11,41 11,40 10,40 10,39 10,38 9,38 9,39 9,40 8,40 8,41 8,42 7,42 7,43 7,44 6,44 6,45 5,45 5,46 4,46 4,47 3,47 3,48 1,48 1,46 2,46 2,45 3,45 3,44 4,44 4,43 5,43 5,41 6,41 6,39 7,39 7,36 8,36 8,35 7,35 7,34 7,33 6,33 6,32 5,32 5,30 4,30 4,28 3,28 3,27 2,27 2,25 1,25 1,23 1,22 0,22 0,21 0,20 1,20 1,19 1,18 2,18 2,17 6,17 6,18 7,18 7,20 8,20 8,21 9,21 9,23 10,23 10,27 11,27 11,34 10,34 10,36 11,36 11,37 12,37 12,38 12,39 13,39 13,40 14,40 14,39 15,39 15,36 16,36 16,33 17,33 17,31 18,31 18,29 19,29 19,27 20,27 20,26 21,26 21,25 22,25 22,24 23,24 23,23 24,23 24,22 25,22 25,20 28,20 28,21 29,21 29,28 28,28 28,29 27,29 27,30 26,30 26,31 25,31 25,32 24,32 24,33 22,33 22,34 21,34 21,35 20,35 20,36 19,36 19,37 18,37 18,46 19,46 19,51 20,51 20,52 21,52 21,53 24,53 24,52 25,52 25,51 26,51 26,49 25,49 25,48 24,48 24,47 23,47 23,45 22,45 22,42 23,42 23,41 24,41 27,41 27,42 28,42 28,43 29,43 29,46 30,46 30,48 29,48 29,50 28,50 28,52 27,52 27,53 26,53 26,54 25,54 25,55 20,55 20,54 19,54 19,53 18,53 18,56 17,56 17,58 16,58 16,59 15,59 15,60 11,60 11,59 10,59 10,58 9,58 9,57 8,57 z M 13,47 13,49 12,49 12,51 11,51 11,54 10,54 10,56 11,56 11,57 12,57 12,58 13,58 14,58 14,57 15,57 15,55 16,55 16,53 16,51 15,51 15,47 z M 23,31 23,30 24,30 24,29 25,29 25,28 26,28 26,27 27,27 27,26 27,23 26,23 26,24 25,24 25,25 24,25 24,26 23,26 23,27 22,27 22,29 21,29 21,30 20,30 20,32 19,32 19,33 20,33 20,32 21,32 21,31 z M 9,28 8,28 8,24 7,24 7,22 6,22 6,21 5,21 5,20 5,19 3,19 3,20 3,22 3,24 4,24 4,26 5,26 5,27 6,27 6,29 7,29 7,31 8,31 8,32 9,32 z M 27,45 27,44 26,44 26,43 24,43 24,44 25,44 25,46 26,46 26,47 27,47 z" fill="#0a090f" fill-opacity="1.0" id="x0a090f_r10_g9_b15_a1.0_shape1"/>
  </g>
</svg>
