<?xml version="1.0" encoding="utf-8" ?>
<svg xmlns="http://www.w3.org/2000/svg" xmlns:ev="http://www.w3.org/2001/xml-events" xmlns:xlink="http://www.w3.org/1999/xlink" baseProfile="full" height="64px" version="1.1" viewBox="0 0 30 64" width="30px">
  <defs/>
  <g id="x0a090f_r10_g9_b15_a1.0">
    <path d="M 13,36 13,41 12,41 12,46 14,46 14,45 15,45 15,44 16,44 16,43 17,43 17,39 17,36 19,36 19,37 20,37 20,41 19,41 19,47 20,47 20,46 21,46 22,46 22,48 21,48 21,49 20,49 20,50 18,50 18,55 17,55 17,57 16,57 16,59 15,59 15,60 14,60 14,61 11,61 11,60 10,60 10,57 10,55 11,55 11,54 12,54 12,52 13,52 13,51 14,51 14,50 16,50 16,49 17,49 17,46 16,46 16,47 15,47 15,48 11,48 11,47 10,47 10,44 10,43 6,43 6,41 10,41 10,38 11,38 11,36 z M 14,55 13,55 13,56 12,56 12,59 13,59 13,58 14,58 14,57 14,56 15,56 15,55 15,54 16,54 16,53 16,52 15,52 15,53 14,53 z" fill="#0a090f" fill-opacity="1.0" id="x0a090f_r10_g9_b15_a1.0_shape1"/>
  </g>
</svg>
