<?xml version="1.0" encoding="utf-8" ?>
<svg xmlns="http://www.w3.org/2000/svg" xmlns:ev="http://www.w3.org/2001/xml-events" xmlns:xlink="http://www.w3.org/1999/xlink" baseProfile="full" height="64px" version="1.1" viewBox="0 0 30 64" width="30px">
  <defs/>
  <g id="x0a090f_r10_g9_b15_a1.0">
    <path d="M 16,34 18,34 18,37 18,38 19,38 19,39 19,46 23,46 23,48 21,48 20,48 20,53 20,56 19,56 19,59 18,59 18,60 17,60 17,61 16,61 16,62 14,62 13,62 13,61 12,61 12,60 11,60 11,59 11,57 12,57 12,54 12,53 13,53 13,52 13,51 14,51 14,50 14,49 15,49 15,48 15,47 17,47 17,46 17,40 16,40 16,42 16,43 15,43 15,44 15,45 14,45 14,46 14,47 13,47 13,48 11,48 11,46 12,46 12,44 13,44 13,42 14,42 14,39 15,39 15,36 16,36 z M 17,55 18,55 18,49 17,49 17,50 16,50 16,51 16,52 15,52 15,53 15,54 14,54 14,55 14,58 13,58 13,59 14,59 14,60 15,60 15,59 16,59 16,58 17,58 z" fill="#0a090f" fill-opacity="1.0" id="x0a090f_r10_g9_b15_a1.0_shape1"/>
    <path d="M 15,27 18,27 18,31 15,31 z" fill="#0a090f" fill-opacity="1.0" id="x0a090f_r10_g9_b15_a1.0_shape2"/>
  </g>
</svg>
