<?xml version="1.0" encoding="utf-8" ?>
<svg xmlns="http://www.w3.org/2000/svg" xmlns:ev="http://www.w3.org/2001/xml-events" xmlns:xlink="http://www.w3.org/1999/xlink" baseProfile="full" height="64px" version="1.1" viewBox="0 0 30 64" width="30px">
  <defs/>
  <g id="x0a090f_r10_g9_b15_a1.0">
    <path d="M 7,45 7,44 6,44 6,43 5,43 5,41 7,41 7,42 8,42 8,43 9,43 9,42 8,42 8,37 7,37 7,33 7,21 8,21 8,18 9,18 9,17 10,17 10,16 12,16 12,17 12,18 13,18 13,19 13,20 14,20 14,21 14,35 13,35 13,38 12,38 12,41 13,41 13,40 17,40 17,41 18,41 18,42 19,42 19,43 20,43 20,47 21,47 21,46 23,46 23,48 22,48 22,49 19,49 19,48 18,48 18,44 17,44 17,43 16,43 16,42 14,42 14,43 13,43 13,45 16,45 16,46 17,46 17,50 16,50 16,51 15,51 15,52 16,52 16,61 15,61 15,62 14,62 14,63 13,63 13,64 9,64 9,63 8,63 8,62 7,62 7,51 8,51 8,49 9,49 9,48 10,48 10,46 11,46 11,44 10,44 10,45 z M 12,53 12,52 11,52 11,51 10,51 10,52 9,52 9,61 10,61 10,62 12,62 12,61 13,61 13,60 14,60 14,54 14,53 z M 12,21 11,21 11,19 10,19 10,22 9,22 9,36 10,36 10,37 11,37 11,34 12,34 12,32 z M 12,49 12,50 13,50 13,49 z M 15,47 14,47 14,48 15,48 z" fill="#0a090f" fill-opacity="1.0" id="x0a090f_r10_g9_b15_a1.0_shape1"/>
  </g>
</svg>
