<?xml version="1.0" encoding="utf-8" ?>
<svg xmlns="http://www.w3.org/2000/svg" xmlns:ev="http://www.w3.org/2001/xml-events" xmlns:xlink="http://www.w3.org/1999/xlink" baseProfile="full" height="64px" version="1.1" viewBox="0 0 30 64" width="30px">
  <defs/>
  <g id="x0a090f_r10_g9_b15_a1.0">
    <path d="M 13,25 12,25 12,26 11,26 11,28 10,28 10,29 9,29 9,32 8,32 8,35 7,35 7,37 7,43 8,43 8,46 9,46 9,47 10,47 10,48 11,48 11,49 15,49 15,48 18,48 18,45 17,45 17,40 18,40 18,39 19,39 19,38 22,38 22,39 23,39 23,40 24,40 24,44 23,44 23,46 22,46 22,48 25,48 25,47 27,47 27,46 29,46 29,48 28,48 28,49 26,49 26,50 21,50 21,49 19,49 19,50 16,50 16,51 10,51 10,50 9,50 9,49 8,49 8,48 7,48 7,47 6,47 6,44 5,44 5,45 4,45 4,47 3,47 3,48 0,48 0,46 2,46 2,44 3,44 3,41 4,41 4,34 5,34 5,31 6,31 6,29 7,29 7,28 8,28 8,26 9,26 9,25 10,25 10,24 11,24 11,23 12,23 12,22 13,22 13,21 14,21 14,20 16,20 16,19 17,19 17,18 23,18 23,19 24,19 24,20 25,20 25,22 23,22 23,21 17,21 17,22 15,22 15,23 14,23 14,24 13,24 z M 21,43 22,43 22,41 21,41 21,40 20,40 20,41 19,41 19,43 19,44 20,44 20,45 21,45 z" fill="#0a090f" fill-opacity="1.0" id="x0a090f_r10_g9_b15_a1.0_shape1"/>
  </g>
</svg>
