<?xml version="1.0" encoding="utf-8" ?>
<svg xmlns="http://www.w3.org/2000/svg" xmlns:ev="http://www.w3.org/2001/xml-events" xmlns:xlink="http://www.w3.org/1999/xlink" baseProfile="full" height="64px" version="1.1" viewBox="0 0 30 64" width="30px">
  <defs/>
  <g id="x0a090f_r10_g9_b15_a1.0">
    <path d="M 10,21 11,21 11,18 12,18 12,17 13,17 13,16 15,16 15,18 16,18 16,20 17,20 17,24 17,35 16,35 16,38 17,38 17,37 18,37 18,36 20,36 20,37 21,37 21,39 21,42 20,42 20,43 19,43 19,44 20,44 20,45 21,45 21,46 23,46 23,48 20,48 20,47 19,47 19,46 18,46 18,45 16,45 16,49 14,49 14,43 13,43 13,42 11,42 11,43 7,43 7,41 10,41 10,40 11,40 11,37 10,37 z M 17,42 18,42 18,41 19,41 19,39 18,39 18,40 17,40 17,41 16,41 16,42 z M 12,36 13,36 13,37 14,37 14,34 15,34 15,21 14,21 14,19 13,19 13,22 12,22 12,26 z M 15,39 16,39 16,38 15,38 z" fill="#0a090f" fill-opacity="1.0" id="x0a090f_r10_g9_b15_a1.0_shape1"/>
  </g>
</svg>
