<?xml version="1.0" encoding="utf-8" ?>
<svg xmlns="http://www.w3.org/2000/svg" xmlns:ev="http://www.w3.org/2001/xml-events" xmlns:xlink="http://www.w3.org/1999/xlink" baseProfile="full" height="64px" version="1.1" viewBox="0 0 30 64" width="30px">
  <defs/>
  <g id="x0a090f_r10_g9_b15_a1.0">
    <path d="M 10,39 10,40 9,40 9,43 8,43 8,45 7,45 7,46 6,46 6,47 5,47 5,48 3,48 3,46 4,46 4,45 5,45 5,44 6,44 6,42 7,42 7,39 8,39 8,36 9,36 9,35 10,35 11,35 11,37 12,37 12,38 13,38 13,39 14,39 14,40 16,40 16,39 17,39 17,38 18,38 18,37 19,37 19,36 20,36 20,35 22,35 22,36 23,36 23,38 21,38 21,39 20,39 20,40 19,40 19,41 18,41 18,43 19,43 19,45 20,45 20,46 21,46 21,47 23,47 23,46 25,46 26,46 26,48 24,48 24,49 21,49 21,48 19,48 19,47 18,47 18,46 16,46 16,47 15,47 15,48 14,48 14,49 11,49 11,48 10,48 10,46 11,46 11,44 12,44 12,43 13,43 13,41 12,41 12,40 11,40 11,39 z M 14,46 14,45 13,45 13,46 z M 15,45 15,44 14,44 14,45 z" fill="#0a090f" fill-opacity="1.0" id="x0a090f_r10_g9_b15_a1.0_shape1"/>
  </g>
</svg>
