<?xml version="1.0" encoding="utf-8" ?>
<svg xmlns="http://www.w3.org/2000/svg" xmlns:ev="http://www.w3.org/2001/xml-events" xmlns:xlink="http://www.w3.org/1999/xlink" baseProfile="full" height="64px" version="1.1" viewBox="0 0 30 64" width="30px">
  <defs/>
  <g id="x0a090f_r10_g9_b15_a1.0">
    <path d="M 19,35 18,35 18,38 17,38 17,41 16,41 16,43 17,43 17,44 18,44 18,45 19,45 19,46 22,46 22,48 18,48 18,47 17,47 17,46 16,46 16,45 15,45 15,44 14,44 14,43 10,43 10,41 13,41 13,37 12,37 12,25 12,21 13,21 13,18 14,18 14,17 15,17 15,16 17,16 17,18 18,18 18,20 19,20 z M 16,34 17,34 17,21 16,21 16,19 15,19 15,22 14,22 14,24 14,36 15,36 15,37 16,37 z" fill="#0a090f" fill-opacity="1.0" id="x0a090f_r10_g9_b15_a1.0_shape1"/>
  </g>
</svg>
