<?xml version="1.0" encoding="utf-8" ?>
<svg xmlns="http://www.w3.org/2000/svg" xmlns:ev="http://www.w3.org/2001/xml-events" xmlns:xlink="http://www.w3.org/1999/xlink" baseProfile="full" height="64px" version="1.1" viewBox="0 0 30 64" width="30px">
  <defs/>
  <g id="x0a090f_r10_g9_b15_a1.0">
    <path d="M 20,46 20,48 21,48 21,47 23,47 23,46 26,46 26,48 24,48 24,49 22,49 22,50 19,50 19,49 18,49 18,48 18,47 17,47 17,46 17,43 16,43 16,44 15,44 15,46 14,46 14,47 15,47 15,49 14,49 14,50 12,50 12,47 11,47 11,44 10,44 10,43 7,43 7,41 9,41 10,41 10,39 9,39 9,31 9,23 10,23 10,20 11,20 11,19 12,19 12,18 14,18 14,20 15,20 15,22 16,22 16,37 15,37 15,40 14,40 14,42 15,42 15,41 16,41 16,40 18,40 18,41 19,41 19,46 z M 13,36 14,36 14,23 13,23 13,21 12,21 12,24 11,24 11,30 11,38 12,38 12,39 13,39 z" fill="#0a090f" fill-opacity="1.0" id="x0a090f_r10_g9_b15_a1.0_shape1"/>
  </g>
</svg>
