# Blender 3.5.0
# www.blender.org
mtllib door_wt_mb.mtl
o door_wt_miniboss_L
v -149.999863 299.999725 29.999926
v -149.999863 0.000004 29.999971
v -149.999863 299.999725 -30.000017
v -149.999863 -0.000004 -29.999971
v 0.000003 299.999725 -30.000017
v 0.000003 -0.000004 -29.999971
v 0.000003 299.999725 29.999926
v 0.000003 0.000004 29.999971
v 0.000003 -0.000004 -29.999971
v -149.999863 -0.000004 -29.999971
v 0.000003 0.000004 29.999971
v -149.999863 0.000004 29.999971
v -149.999863 299.999725 -30.000017
v -149.999863 -0.000004 -29.999971
v 0.000003 299.999725 -30.000017
v 0.000003 -0.000004 -29.999971
v 0.000003 299.999725 29.999926
v -149.999863 299.999725 29.999926
v 0.000003 299.999725 -30.000017
v -149.999863 299.999725 -30.000017
v 0.000003 299.999725 29.999926
v 0.000003 0.000004 29.999971
v -149.999863 299.999725 29.999926
v -149.999863 0.000004 29.999971
vn -1.0000 -0.0000 -0.0000
vn 1.0000 -0.0000 -0.0000
vn -0.0000 -1.0000 -0.0000
vn -0.0000 -0.0000 -1.0000
vn -0.0000 1.0000 -0.0000
vn -0.0000 -0.0000 1.0000
vt 0.128906 1.000000
vt 0.128906 0.000000
vt 0.000000 1.000000
vt 0.000000 0.000000
vt 1.000000 1.000000
vt 1.000000 0.000000
vt 0.863281 1.000000
vt 0.863281 0.000000
vt 0.500000 0.207031
vt 0.000000 0.207031
vt 0.500000 0.042969
vt 0.000000 0.042969
vt 1.000000 1.000000
vt 1.000000 0.000000
vt 0.500000 1.000000
vt 0.500000 0.000000
vt 0.500000 0.199219
vt 0.000000 0.199219
vt 0.500000 0.000000
vt 0.000000 0.000000
vt 0.500000 1.000000
vt 0.500000 0.000000
vt 0.000000 1.000000
vt 0.000000 0.000000
s 0
usemtl lambert10327_v
f 3/3/1 2/2/1 1/1/1
f 3/3/1 4/4/1 2/2/1
f 7/7/2 6/6/2 5/5/2
f 7/7/2 8/8/2 6/6/2
f 11/11/3 10/10/3 9/9/3
f 11/11/3 12/12/3 10/10/3
f 15/15/4 14/14/4 13/13/4
f 15/15/4 16/16/4 14/14/4
f 19/19/5 18/18/5 17/17/5
f 19/19/5 20/20/5 18/18/5
f 23/23/6 22/22/6 21/21/6
f 23/23/6 24/24/6 22/22/6
o door_wt_miniboss_R
v 0.000000 299.999725 29.999926
v 0.000000 0.000004 29.999971
v 0.000000 299.999725 -30.000017
v 0.000000 -0.000004 -29.999971
v 149.999863 299.999725 -30.000017
v 149.999863 -0.000004 -29.999971
v 149.999863 299.999725 29.999926
v 149.999863 0.000004 29.999971
v 149.999863 -0.000004 -29.999971
v 0.000000 -0.000004 -29.999971
v 149.999863 0.000004 29.999971
v 0.000000 0.000004 29.999971
v 0.000000 299.999725 -30.000017
v 0.000000 -0.000004 -29.999971
v 149.999863 299.999725 -30.000017
v 149.999863 -0.000004 -29.999971
v 149.999863 299.999725 29.999926
v 0.000000 299.999725 29.999926
v 149.999863 299.999725 -30.000017
v 0.000000 299.999725 -30.000017
v 149.999863 299.999725 29.999926
v 149.999863 0.000004 29.999971
v 0.000000 299.999725 29.999926
v 0.000000 0.000004 29.999971
vn -1.0000 -0.0000 -0.0000
vn 1.0000 -0.0000 -0.0000
vn -0.0000 -1.0000 -0.0000
vn -0.0000 -0.0000 -1.0000
vn -0.0000 1.0000 -0.0000
vn -0.0000 -0.0000 1.0000
vt 1.136719 1.000000
vt 1.136719 0.000000
vt 1.000000 1.000000
vt 1.000000 0.000000
vt 1.000000 1.000000
vt 1.000000 0.000000
vt 0.863281 1.000000
vt 0.863281 0.000000
vt 1.000000 0.207031
vt 0.500000 0.207031
vt 1.000000 0.042969
vt 0.500000 0.042969
vt 0.500000 1.000000
vt 0.500000 0.000000
vt 0.000000 1.000000
vt 0.000000 0.000000
vt 1.000000 0.199219
vt 0.500000 0.199219
vt 1.000000 0.000000
vt 0.500000 0.000000
vt 1.000000 1.000000
vt 1.000000 0.000000
vt 0.500000 1.000000
vt 0.500000 0.000000
s 0
usemtl lambert10327_v
f 27/27/7 26/26/7 25/25/7
f 27/27/7 28/28/7 26/26/7
f 31/31/8 30/30/8 29/29/8
f 31/31/8 32/32/8 30/30/8
f 35/35/9 34/34/9 33/33/9
f 35/35/9 36/36/9 34/34/9
f 39/39/10 38/38/10 37/37/10
f 39/39/10 40/40/10 38/38/10
f 43/43/11 42/42/11 41/41/11
f 43/43/11 44/44/11 42/42/11
f 47/47/12 46/46/12 45/45/12
f 47/47/12 48/48/12 46/46/12
