{
	"asset":{
		"generator":"Khronos glTF Blender I/O v4.2.70",
		"version":"2.0"
	},
	"extensionsUsed":[
		"KHR_materials_specular",
		"KHR_materials_ior"
	],
	"scene":0,
	"scenes":[
		{
			"name":"Scene",
			"nodes":[
				0,
				1,
				2,
				3
			]
		}
	],
	"nodes":[
		{
			"mesh":0,
			"name":"VisID:0",
			"rotation":[
				0,
				-0.7071068286895752,
				0.7071068286895752,
				1.1639852459666145e-07
			],
			"scale":[
				0.0005298933829180896,
				0.000529893150087446,
				0.000529893150087446
			]
		},
		{
			"mesh":1,
			"name":"VisID:1",
			"rotation":[
				0,
				-0.7071068286895752,
				0.7071068286895752,
				1.1639852459666145e-07
			],
			"scale":[
				0.0005298933829180896,
				0.000529893150087446,
				0.000529893150087446
			]
		},
		{
			"mesh":2,
			"name":"pCylinder1_low__Mt_Plant_ChemicalPlantBomb_B"
		},
		{
			"mesh":3,
			"name":"tentacle",
			"rotation":[
				0,
				-0.7071068286895752,
				0.7071068286895752,
				1.1520233300643667e-07
			],
			"scale":[
				0.023500191047787666,
				0.023500191047787666,
				0.023500191047787666
			]
		}
	],
	"materials":[
		{
			"doubleSided":true,
			"extensions":{
				"KHR_materials_specular":{
					"specularFactor":0
				},
				"KHR_materials_ior":{
					"ior":1.4499999284744263
				}
			},
			"name":"zorapeople_mat",
			"pbrMetallicRoughness":{
				"baseColorTexture":{
					"index":0
				},
				"metallicFactor":0,
				"roughnessFactor":0.5
			}
		},
		{
			"doubleSided":true,
			"extensions":{
				"KHR_materials_specular":{
					"specularFactor":0
				},
				"KHR_materials_ior":{
					"ior":1.4499999284744263
				}
			},
			"name":"zorapeople_mat.001",
			"pbrMetallicRoughness":{
				"baseColorTexture":{
					"index":1
				},
				"metallicFactor":0,
				"roughnessFactor":0.5
			}
		},
		{
			"doubleSided":true,
			"extensions":{
				"KHR_materials_specular":{
					"specularFactor":0
				},
				"KHR_materials_ior":{
					"ior":1.4499999284744263
				}
			},
			"name":"Mt_Plant_ChemicalPlantBomb_B",
			"pbrMetallicRoughness":{
				"baseColorTexture":{
					"index":2
				},
				"metallicFactor":0,
				"roughnessFactor":0.5
			}
		},
		{
			"alphaMode":"BLEND",
			"doubleSided":true,
			"name":"cf_gesso.png",
			"pbrMetallicRoughness":{
				"baseColorTexture":{
					"index":3
				},
				"metallicFactor":0,
				"roughnessFactor":0.690034806728363
			}
		}
	],
	"meshes":[
		{
			"name":"VisID:0",
			"primitives":[
				{
					"attributes":{
						"POSITION":0,
						"NORMAL":1,
						"TEXCOORD_0":2
					},
					"indices":3,
					"material":0
				}
			]
		},
		{
			"name":"VisID:1",
			"primitives":[
				{
					"attributes":{
						"POSITION":4,
						"NORMAL":5,
						"TEXCOORD_0":6
					},
					"indices":7,
					"material":1
				}
			]
		},
		{
			"name":"pCylinder1_low__Mt_Plant_ChemicalPlantBomb_B",
			"primitives":[
				{
					"attributes":{
						"POSITION":8,
						"NORMAL":9,
						"TEXCOORD_0":10,
						"COLOR_0":11,
						"COLOR_1":12
					},
					"indices":13,
					"material":2
				}
			]
		},
		{
			"name":"tentacle",
			"primitives":[
				{
					"attributes":{
						"POSITION":14,
						"NORMAL":15,
						"TEXCOORD_0":16
					},
					"indices":17,
					"material":3
				}
			]
		}
	],
	"textures":[
		{
			"sampler":0,
			"source":0
		},
		{
			"sampler":0,
			"source":1
		},
		{
			"sampler":0,
			"source":2
		},
		{
			"sampler":0,
			"source":3
		}
	],
	"images":[
		{
			"mimeType":"image/jpeg",
			"name":"zorapeople_00",
			"uri":"zorapeople_00.jpg"
		},
		{
			"mimeType":"image/jpeg",
			"name":"zo_eye01",
			"uri":"zo_eye01.jpg"
		},
		{
			"mimeType":"image/jpeg",
			"name":"Plant_ChemicalPlantBomb_A_Alb",
			"uri":"Plant_ChemicalPlantBomb_A_Alb.jpg"
		},
		{
			"mimeType":"image/png",
			"name":"cf_gesso",
			"uri":"cf_gesso.png"
		}
	],
	"accessors":[
		{
			"bufferView":0,
			"componentType":5126,
			"count":76,
			"max":[
				466.2019958496094,
				1996.7691650390625,
				563.488525390625
			],
			"min":[
				-466.2020568847656,
				-104.9371337890625,
				-625.07275390625
			],
			"type":"VEC3"
		},
		{
			"bufferView":1,
			"componentType":5126,
			"count":76,
			"type":"VEC3"
		},
		{
			"bufferView":2,
			"componentType":5126,
			"count":76,
			"type":"VEC2"
		},
		{
			"bufferView":3,
			"componentType":5123,
			"count":342,
			"type":"SCALAR"
		},
		{
			"bufferView":4,
			"componentType":5126,
			"count":12,
			"max":[
				336.5261535644531,
				1659.5916748046875,
				115.29357147216797
			],
			"min":[
				-336.54193115234375,
				1314.1556396484375,
				-225.70413208007812
			],
			"type":"VEC3"
		},
		{
			"bufferView":5,
			"componentType":5126,
			"count":12,
			"type":"VEC3"
		},
		{
			"bufferView":6,
			"componentType":5126,
			"count":12,
			"type":"VEC2"
		},
		{
			"bufferView":7,
			"componentType":5123,
			"count":24,
			"type":"SCALAR"
		},
		{
			"bufferView":8,
			"componentType":5126,
			"count":404,
			"max":[
				0.5252484679222107,
				0.5362412333488464,
				0
			],
			"min":[
				-0.5959311723709106,
				-0.5849383473396301,
				-0.644326388835907
			],
			"type":"VEC3"
		},
		{
			"bufferView":9,
			"componentType":5126,
			"count":404,
			"type":"VEC3"
		},
		{
			"bufferView":10,
			"componentType":5126,
			"count":404,
			"type":"VEC2"
		},
		{
			"bufferView":11,
			"componentType":5121,
			"count":404,
			"normalized":true,
			"type":"VEC4"
		},
		{
			"bufferView":12,
			"componentType":5126,
			"count":404,
			"type":"VEC3"
		},
		{
			"bufferView":13,
			"componentType":5123,
			"count":1395,
			"type":"SCALAR"
		},
		{
			"bufferView":14,
			"componentType":5126,
			"count":727,
			"max":[
				9.544517517089844,
				39.51324462890625,
				16.176952362060547
			],
			"min":[
				-9.544525146484375,
				-0.26612186431884766,
				-10.44566535949707
			],
			"type":"VEC3"
		},
		{
			"bufferView":15,
			"componentType":5126,
			"count":727,
			"type":"VEC3"
		},
		{
			"bufferView":16,
			"componentType":5126,
			"count":727,
			"type":"VEC2"
		},
		{
			"bufferView":17,
			"componentType":5123,
			"count":3804,
			"type":"SCALAR"
		}
	],
	"bufferViews":[
		{
			"buffer":0,
			"byteLength":912,
			"byteOffset":0,
			"target":34962
		},
		{
			"buffer":0,
			"byteLength":912,
			"byteOffset":912,
			"target":34962
		},
		{
			"buffer":0,
			"byteLength":608,
			"byteOffset":1824,
			"target":34962
		},
		{
			"buffer":0,
			"byteLength":684,
			"byteOffset":2432,
			"target":34963
		},
		{
			"buffer":0,
			"byteLength":144,
			"byteOffset":3116,
			"target":34962
		},
		{
			"buffer":0,
			"byteLength":144,
			"byteOffset":3260,
			"target":34962
		},
		{
			"buffer":0,
			"byteLength":96,
			"byteOffset":3404,
			"target":34962
		},
		{
			"buffer":0,
			"byteLength":48,
			"byteOffset":3500,
			"target":34963
		},
		{
			"buffer":0,
			"byteLength":4848,
			"byteOffset":3548,
			"target":34962
		},
		{
			"buffer":0,
			"byteLength":4848,
			"byteOffset":8396,
			"target":34962
		},
		{
			"buffer":0,
			"byteLength":3232,
			"byteOffset":13244,
			"target":34962
		},
		{
			"buffer":0,
			"byteLength":1616,
			"byteOffset":16476,
			"target":34962
		},
		{
			"buffer":0,
			"byteLength":4848,
			"byteOffset":18092,
			"target":34962
		},
		{
			"buffer":0,
			"byteLength":2790,
			"byteOffset":22940,
			"target":34963
		},
		{
			"buffer":0,
			"byteLength":8724,
			"byteOffset":25732,
			"target":34962
		},
		{
			"buffer":0,
			"byteLength":8724,
			"byteOffset":34456,
			"target":34962
		},
		{
			"buffer":0,
			"byteLength":5816,
			"byteOffset":43180,
			"target":34962
		},
		{
			"buffer":0,
			"byteLength":7608,
			"byteOffset":48996,
			"target":34963
		}
	],
	"samplers":[
		{
			"magFilter":9729,
			"minFilter":9987
		}
	],
	"buffers":[
		{
			"byteLength":56604,
			"uri":"SexObjectHead.bin"
		}
	]
}
