# Blender v2.93.0 OBJ File: ''
# www.blender.org
mtllib crystal_small01_var4.mtl
o crystal_small01_var4
v 10.132813 0.000000 -3.958984
v 4.550781 40.125000 -10.328125
v 7.617188 40.125000 -0.708984
v -2.273438 40.125000 -10.906250
v 6.121094 0.000000 -9.046875
v -2.900391 0.000000 -11.109375
v -7.867188 40.125000 -4.242188
v -2.273438 40.125000 -10.906250
v -2.900391 0.000000 -11.109375
v -10.132813 0.000000 -5.335938
v -7.867188 40.125000 2.824219
v -10.132813 0.000000 5.335938
v -2.339844 40.125000 7.230469
v -2.900391 0.000000 11.109375
v 4.550781 31.750000 7.980469
v 6.121094 0.000000 9.046875
v 2.080078 61.468750 -7.921875
v 2.632813 60.687500 -5.914063
v -2.343750 65.812500 -8.031250
v -2.343750 65.812500 -8.031250
v -2.343750 63.875000 -3.802734
v 2.080078 61.468750 -3.912109
v -2.343750 65.812500 -8.031250
v -2.343750 63.875000 -3.802734
vt 0.239868 0.578369
vt 0.450928 0.451660
vt 0.422852 0.366211
vt 0.473633 0.508545
vt 0.257080 0.644287
vt 0.282715 0.736572
vt 0.401123 0.114258
vt 0.409912 0.022949
vt 0.185181 0.008301
vt 0.183594 0.114746
vt 0.396973 0.182617
vt 0.186768 0.234863
vt 0.398682 0.248047
vt 0.194946 0.338379
vt 0.364746 0.327637
vt 0.209839 0.440918
vt 0.537109 0.295410
vt 0.524902 0.277344
vt 0.571289 0.295898
vt 0.542969 0.142578
vt 0.527344 0.187012
vt 0.522461 0.247070
vt 0.573730 0.251465
vt 0.550781 0.206543
vn 0.9839 0.0322 -0.1756
vn 0.6101 0.0884 -0.7874
vn 0.9643 0.2092 0.1625
vn -0.3711 0.0479 -0.9273
vn 0.5372 0.0051 -0.8435
vn -0.2392 0.0295 -0.9705
vn -0.9401 0.1039 -0.3247
vn -0.3712 0.0479 -0.9273
vn -0.8991 0.0629 -0.4332
vn -0.8792 0.1931 0.4356
vn -0.8944 0.0782 0.4404
vn -0.1754 0.2923 0.9401
vn -0.2339 0.0744 0.9694
vn 0.5560 0.1495 0.8176
vn 0.6778 0.0477 0.7337
vn 0.6852 0.4491 -0.5734
vn 0.9205 0.3908 0.0016
vn -0.2574 0.8757 -0.4085
vn -0.3692 0.7165 0.5919
vn 0.6980 0.5362 0.4747
vn -0.2574 0.8757 -0.4086
usemtl crystals4_c
s 1
f 1/1/1 2/2/2 3/3/3
f 4/4/4 2/2/2 5/5/5
f 1/1/1 5/5/5 2/2/2
f 5/5/5 6/6/6 4/4/4
f 7/7/7 8/8/8 9/9/6
f 9/9/6 10/10/9 7/7/7
f 11/11/10 7/7/7 10/10/9
f 10/10/9 12/12/11 11/11/10
f 13/13/12 11/11/10 12/12/11
f 12/12/11 14/14/13 13/13/12
f 15/15/14 13/13/12 14/14/13
f 16/16/15 1/1/1 3/3/3
f 14/14/13 16/16/15 15/15/14
f 3/3/3 15/15/14 16/16/15
f 3/3/3 2/2/2 17/17/16
f 17/17/16 18/18/17 3/3/3
f 15/15/14 3/3/3 18/18/17
f 19/19/18 17/17/16 2/2/2
f 2/2/2 4/4/4 19/19/18
f 8/8/8 7/7/7 20/20/18
f 11/11/10 13/13/12 21/21/19
f 7/7/7 11/11/10 21/21/19
f 21/21/19 20/20/18 7/7/7
f 22/22/20 21/21/19 13/13/12
f 13/13/12 15/15/14 22/22/20
f 18/18/17 22/22/20 15/15/14
f 23/23/21 22/22/20 18/18/17
f 18/18/17 17/17/16 23/23/21
f 23/23/21 24/24/19 22/22/20
