# Blender v2.93.0 OBJ File: ''
# www.blender.org
mtllib crystal_thin01_var4.mtl
o crystal_thin01_var4
v 1.309570 61.156250 -3.935547
v 5.546875 82.000000 0.804199
v 5.546875 -0.000008 0.804199
v 1.309570 -0.000008 -5.027344
v -5.546875 54.031250 -1.707031
v -5.546875 91.500000 -2.800781
v 1.309570 89.562500 -5.027344
v -5.546875 91.500000 4.410156
v -5.546875 54.031250 -1.707031
v -3.314453 -0.000008 -2.800781
v -5.546875 -0.000008 4.410156
v 1.309570 89.562500 6.636719
v 1.309570 -0.000008 6.636719
v -0.946777 112.375000 -1.189453
v -3.291016 112.375000 -0.427734
v -5.546875 91.500000 -2.800781
v -3.291016 108.000000 2.037109
v -3.291016 112.375000 -0.427734
v -0.946777 108.000000 2.798828
v -3.291016 108.000000 2.037109
v -3.291016 112.375000 -0.427734
v 0.326904 55.000000 -6.636719
v -3.314453 50.625000 -4.410156
v -3.314453 50.625000 -4.410156
v 1.309570 -0.000008 -5.027344
v 0.326904 55.000000 -6.636719
vt 0.779785 0.476074
vt 0.710449 0.424316
vt 0.990234 0.430664
vt 0.990234 0.479492
vt 0.798828 0.535400
vt 0.668945 0.501709
vt 0.681641 0.459473
vt 0.676270 0.333008
vt 0.804688 0.286133
vt 0.990723 0.277344
vt 0.991211 0.330078
vt 0.685547 0.377441
vt 0.990723 0.380371
vt 0.605957 0.409668
vt 0.602539 0.427246
vt 0.671875 0.285156
vt 0.620117 0.360840
vt 0.601563 0.354492
vt 0.621582 0.381348
vt 0.614746 0.371094
vt 0.601563 0.395020
vt 0.802246 0.488770
vt 0.816895 0.262207
vt 0.812012 0.520508
vt 0.991211 0.242188
vt 0.802246 0.231934
vn 0.2947 0.0507 -0.9543
vn 0.9991 0.0407 -0.0116
vn 1.0000 0.0061 -0.0034
vn 0.2564 -0.0119 -0.9665
vn -0.9522 0.0513 -0.3011
vn -0.7976 0.0796 -0.5979
vn 0.3692 0.0958 -0.9244
vn -0.7950 0.0991 0.5985
vn -0.7634 -0.0168 -0.6457
vn -0.8880 -0.0000 0.4599
vn 0.3994 0.1488 0.9046
vn 0.3091 0.0000 0.9510
vn 0.4085 0.8571 -0.3138
vn -0.5115 0.8593 -0.0025
vn -0.6849 0.3290 0.6502
vn -0.5115 0.8593 -0.0026
vn 0.4406 0.4149 0.7961
vn -0.6849 0.3290 0.6501
vn 0.2123 0.2148 -0.9533
vn -0.6491 0.0202 -0.7604
vn 0.2564 -0.0118 -0.9665
usemtl crystals4_c
s 1
f 1/1/1 2/2/2 3/3/3
f 3/3/3 4/4/4 1/1/1
f 1/1/1 5/5/5 6/6/6
f 6/6/6 7/7/7 1/1/1
f 1/1/1 7/7/7 2/2/2
f 8/8/8 9/9/5 10/10/9
f 10/10/9 11/11/10 8/8/8
f 12/12/11 8/8/8 11/11/10
f 13/13/12 3/3/3 2/2/2
f 2/2/2 12/12/11 13/13/12
f 11/11/10 13/13/12 12/12/11
f 12/12/11 2/2/2 14/14/13
f 2/2/2 7/7/7 14/14/13
f 7/7/7 6/6/6 15/15/14
f 15/15/14 14/14/13 7/7/7
f 8/8/8 16/16/6 9/9/5
f 16/16/6 8/8/8 17/17/15
f 17/17/15 18/18/16 16/16/6
f 19/19/17 17/17/15 8/8/8
f 8/8/8 12/12/11 19/19/17
f 14/14/13 19/19/17 12/12/11
f 20/20/18 19/19/17 14/14/13
f 14/14/13 21/21/16 20/20/18
f 1/1/1 4/4/4 22/22/19
f 5/5/5 1/1/1 22/22/19
f 9/9/5 23/23/20 10/10/9
f 22/22/19 24/24/20 5/5/5
f 25/25/21 10/10/9 23/23/20
f 23/23/20 26/26/19 25/25/21
