# Blender v2.93.0 OBJ File: ''
# www.blender.org
mtllib crystal_thin02_var5.mtl
o crystal_thin02_var5
v 0.880859 92.250000 -3.988281
v 4.406250 82.812500 0.000000
v 3.826172 -0.000004 0.000000
v 0.929688 -0.000004 -3.988281
v -3.646484 93.500000 -2.464844
v -3.757813 -0.000004 -2.464844
v -4.273438 93.625000 2.605469
v -3.646484 93.500000 -2.464844
v -3.757813 -0.000004 -2.464844
v -4.406250 -0.000004 2.605469
v 1.609375 83.562500 3.988281
v 0.929688 -0.000004 3.988281
v -1.407227 109.187500 0.000000
v -4.265625 106.062500 0.000000
v -4.265625 106.062500 0.000000
vt 0.616699 0.180176
vt 0.656738 0.147949
vt 0.993652 0.146484
vt 0.993164 0.187500
vt 0.606934 0.213867
vt 0.993164 0.228027
vt 0.610840 0.074707
vt 0.606934 0.033691
vt 0.993164 0.016113
vt 0.993652 0.058105
vt 0.653809 0.112305
vt 0.993652 0.104980
vt 0.548340 0.127441
vt 0.554199 0.164551
vt 0.558594 0.094727
vn 0.4090 0.1591 -0.8985
vn 0.9973 0.0606 -0.0411
vn 1.0000 -0.0034 -0.0019
vn 0.3091 0.0005 -0.9510
vn -0.7462 0.0577 -0.6632
vn -0.7702 0.0010 -0.6378
vn -0.7324 0.0955 0.6742
vn -0.7702 0.0012 -0.6378
vn -0.8280 0.0022 0.5607
vn 0.3861 0.0707 0.9197
vn 0.3355 -0.0022 0.9421
vn 0.1541 0.9880 0.0117
vn -0.8442 0.5359 -0.0050
usemtl crystals5_c
s 1
f 1/1/1 2/2/2 3/3/3
f 3/3/3 4/4/4 1/1/1
f 5/5/5 1/1/1 4/4/4
f 4/4/4 6/6/6 5/5/5
f 7/7/7 8/8/5 9/9/8
f 9/9/8 10/10/9 7/7/7
f 11/11/10 7/7/7 10/10/9
f 10/10/9 12/12/11 11/11/10
f 2/2/2 11/11/10 12/12/11
f 12/12/11 3/3/3 2/2/2
f 7/7/7 11/11/10 13/13/12
f 11/11/10 2/2/2 13/13/12
f 2/2/2 1/1/1 13/13/12
f 1/1/1 5/5/5 14/14/13
f 14/14/13 13/13/12 1/1/1
f 13/13/12 15/15/13 7/7/7
f 8/8/5 7/7/7 15/15/13
