# Blender v2.93.0 OBJ File: ''
# www.blender.org
mtllib crystal_small02_var2.mtl
o crystal_small02_var2
v 5.062500 40.125000 -7.183594
v 8.437500 34.656250 -0.176636
v 10.132813 0.000000 -0.176636
v 6.121094 0.000000 -8.515625
v -2.523438 42.312500 -8.914063
v -2.900391 0.000000 -10.570313
v -8.601563 42.312500 -4.066406
v -2.523438 42.312500 -8.914063
v -2.900391 0.000000 -10.570313
v -10.132813 0.000000 -4.804688
v -8.601563 40.125000 3.712891
v -10.132813 0.000000 4.449219
v -2.523438 39.250000 8.562500
v -2.900391 0.000000 10.218750
v 1.452148 0.000000 10.570313
v 0.732422 36.250000 9.164063
v 6.121094 0.000000 8.164063
v 5.062500 34.656250 6.832031
v 4.917969 55.625000 -0.176636
v -3.074219 60.281250 -1.000000
v -3.074219 60.281250 -1.000000
v -3.074219 60.281250 3.726563
v 2.867188 55.625000 4.082031
v 4.917969 55.625000 -0.176636
v -3.074219 60.281250 -1.000000
vt 0.206787 0.624756
vt 0.183350 0.685547
vt 0.211792 0.969696
vt 0.251221 0.950867
vt 0.232422 0.580566
vt 0.289795 0.927246
vt 0.063049 0.633789
vt 0.032196 0.616455
vt 0.007542 0.976669
vt 0.047485 0.985550
vt 0.092346 0.658691
vt 0.087646 0.989998
vt 0.122498 0.665527
vt 0.127808 0.989655
vt 0.147827 0.987587
vt 0.134399 0.688965
vt 0.171631 0.982773
vt 0.153320 0.697021
vt 0.160522 0.513672
vt 0.179810 0.441406
vt 0.087402 0.482422
vt 0.108948 0.489746
vt 0.138794 0.522461
vt 0.154053 0.493164
vt 0.117859 0.451172
vn 0.6401 0.1759 -0.7479
vn 0.9952 0.0944 0.0262
vn 0.9989 0.0460 0.0018
vn 0.6234 0.0414 -0.7808
vn -0.1735 0.2290 -0.9578
vn -0.2223 0.0401 -0.9742
vn -0.8923 0.1871 -0.4108
vn -0.2223 0.0402 -0.9741
vn -0.9006 0.0411 -0.4328
vn -0.8895 0.1287 0.4385
vn -0.9001 0.0427 0.4336
vn -0.3119 0.1522 0.9378
vn -0.3666 0.0427 0.9294
vn 0.1968 0.0448 0.9794
vn 0.1984 0.1103 0.9739
vn 0.7167 0.0465 0.6959
vn 0.7287 0.0992 0.6776
vn 0.8103 0.5353 -0.2386
vn -0.2867 0.8450 -0.4515
vn -0.2867 0.8449 -0.4516
vn -0.2948 0.8090 0.5085
vn 0.5783 0.4350 0.6902
vn -0.2867 0.8449 -0.4515
usemtl crystals2_c
s 1
f 1/1/1 2/2/2 3/3/3
f 3/3/3 4/4/4 1/1/1
f 5/5/5 1/1/1 4/4/4
f 4/4/4 6/6/6 5/5/5
f 7/7/7 8/8/5 9/9/8
f 9/9/8 10/10/9 7/7/7
f 11/11/10 7/7/7 10/10/9
f 10/10/9 12/12/11 11/11/10
f 13/13/12 11/11/10 12/12/11
f 12/12/11 14/14/13 13/13/12
f 15/15/14 16/16/15 13/13/12
f 13/13/12 14/14/13 15/15/14
f 16/16/15 15/15/14 17/17/16
f 17/17/16 3/3/3 2/2/2
f 2/2/2 18/18/17 17/17/16
f 17/17/16 18/18/17 16/16/15
f 18/18/17 2/2/2 19/19/18
f 2/2/2 1/1/1 19/19/18
f 1/1/1 5/5/5 20/20/19
f 1/1/1 20/20/19 19/19/18
f 8/8/5 7/7/7 21/21/20
f 22/22/21 21/21/20 7/7/7
f 7/7/7 11/11/10 22/22/21
f 11/11/10 13/13/12 22/22/21
f 23/23/22 22/22/21 13/13/12
f 13/13/12 16/16/15 23/23/22
f 19/19/18 23/23/22 18/18/17
f 16/16/15 18/18/17 23/23/22
f 22/22/21 23/23/22 24/24/18
f 24/24/18 25/25/23 22/22/21
